<svg width="237" height="70" viewBox="0 0 237 70" fill="none" xmlns="http://www.w3.org/2000/svg">
<path d="M234.683 61.736C234.683 62.617 234.509 63.4894 234.172 64.3032C233.834 65.1171 233.339 65.8565 232.716 66.4791C232.093 67.1018 231.352 67.5955 230.538 67.932C229.724 68.2685 228.851 68.4412 227.97 68.4403H8.28023C6.49964 68.4422 4.79121 67.7369 3.53066 66.4797C2.27011 65.2224 1.56067 63.5161 1.55835 61.736V8.27102C1.56067 6.49009 2.26983 4.78288 3.53013 3.52423C4.79042 2.26558 6.49883 1.55838 8.28023 1.55792H227.968C228.85 1.55792 229.723 1.73157 230.537 2.06896C231.352 2.40635 232.092 2.90086 232.715 3.52425C233.339 4.14764 233.833 4.8877 234.17 5.70216C234.508 6.51662 234.681 7.38952 234.681 8.27102L234.683 61.736Z" fill="white"/>
<path d="M227.97 70H8.28022C6.08674 69.9995 3.98302 69.1292 2.43068 67.5799C0.878338 66.0306 0.0041736 63.9289 0 61.736L0 8.27278C0.00324494 6.07879 0.876832 3.97566 2.42912 2.42477C3.98141 0.873873 6.08565 0.00185181 8.28022 0L227.968 0C230.162 0.00277582 232.266 0.875094 233.818 2.42579C235.37 3.97648 236.244 6.07907 236.248 8.27278V61.736C236.252 66.2942 232.531 70 227.97 70Z" fill="#A6A6A6"/>
<path d="M234.683 61.736C234.683 62.617 234.509 63.4894 234.172 64.3032C233.834 65.1171 233.339 65.8565 232.716 66.4791C232.093 67.1018 231.352 67.5955 230.538 67.932C229.724 68.2685 228.851 68.4412 227.97 68.4403H8.28023C6.49964 68.4422 4.79121 67.7369 3.53066 66.4797C2.27011 65.2224 1.56067 63.5161 1.55835 61.736V8.27102C1.56067 6.49009 2.26983 4.78288 3.53013 3.52423C4.79042 2.26558 6.49883 1.55838 8.28023 1.55792H227.968C228.85 1.55792 229.723 1.73157 230.537 2.06896C231.352 2.40635 232.092 2.90086 232.715 3.52425C233.339 4.14764 233.833 4.8877 234.17 5.70216C234.508 6.51662 234.681 7.38952 234.681 8.27102L234.683 61.736Z" fill="black"/>
<path d="M52.7523 34.6315C52.7015 28.9897 57.373 26.245 57.5866 26.1172C54.9409 22.2609 50.8402 21.734 49.3992 21.692C45.9551 21.3296 42.6143 23.7523 40.8598 23.7523C39.0704 23.7523 36.3687 21.727 33.4568 21.7865C29.7098 21.8443 26.2044 24.0131 24.2819 27.381C20.3142 34.2482 23.2733 44.3397 27.0746 49.8905C28.9762 52.6107 31.1981 55.6443 34.1064 55.5375C36.9517 55.422 38.0146 53.7258 41.4482 53.7258C44.8502 53.7258 45.8483 55.5375 48.8144 55.4693C51.868 55.422 53.7906 52.7385 55.6256 49.9955C57.823 46.8814 58.7055 43.8111 58.7405 43.6535C58.6704 43.629 52.8118 41.3919 52.7523 34.6315ZM47.1492 18.0405C48.6796 16.1272 49.7266 13.5242 49.436 10.8828C47.221 10.9808 44.451 12.4144 42.8559 14.2857C41.4447 15.9346 40.184 18.6374 40.5096 21.1791C42.9977 21.3646 45.5524 19.924 47.1492 18.0405Z" fill="white"/>
<path d="M227.97 0H110.297L156.387 70H227.97C230.164 69.9982 232.267 69.1266 233.819 67.5765C235.372 66.0263 236.246 63.9241 236.25 61.7307V8.27278C236.246 6.07893 235.372 3.97607 233.82 2.42528C232.268 0.874483 230.164 0.00231399 227.97 0V0Z" fill="url(#paint0_linear_0_406)"/>
<path d="M93.9643 55.1471H89.9879L87.8097 48.3045H80.2387L78.1638 55.1471H74.2924L81.7952 31.8517H86.4283L93.9643 55.1471ZM87.1531 45.4337L85.1833 39.3508C84.975 38.7294 84.5828 37.266 84.0084 34.9623H83.9384C83.7073 35.9531 83.3378 37.4165 82.8318 39.3508L80.8953 45.4337H87.1531ZM113.221 46.5418C113.221 49.3986 112.446 51.6567 110.892 53.3144C109.502 54.79 107.774 55.527 105.713 55.527C103.488 55.527 101.887 54.734 100.916 53.1446V61.9583H97.1826V43.8705C97.1826 42.0763 97.1353 40.2365 97.0442 38.3495H100.327L100.536 41.012H100.606C101.851 39.006 103.74 38.0029 106.275 38.0029C108.257 38.0029 109.912 38.7854 111.236 40.3521C112.558 41.9223 113.221 43.9843 113.221 46.5418ZM109.418 46.6783C109.418 45.0434 109.05 43.6955 108.312 42.633C107.504 41.5284 106.421 40.9753 105.062 40.9753C104.141 40.9753 103.304 41.2833 102.556 41.8907C101.807 42.5034 101.317 43.3034 101.087 44.2942C100.985 44.6647 100.927 45.046 100.914 45.4302V48.2327C100.914 49.4528 101.289 50.4839 102.038 51.3276C102.787 52.1678 103.761 52.5897 104.959 52.5897C106.365 52.5897 107.459 52.0453 108.242 50.9652C109.026 49.8817 109.418 48.4533 109.418 46.6783ZM132.546 46.5418C132.546 49.3986 131.771 51.6567 130.218 53.3144C128.826 54.79 127.099 55.527 125.037 55.527C122.811 55.527 121.211 54.734 120.239 53.1446V61.9583H116.506V43.8705C116.506 42.0763 116.459 40.2365 116.368 38.3495H119.651L119.859 41.012H119.929C121.172 39.006 123.062 38.0029 125.599 38.0029C127.579 38.0029 129.234 38.7854 130.561 40.3521C131.881 41.9223 132.546 43.9843 132.546 46.5418ZM128.742 46.6783C128.742 45.0434 128.372 43.6955 127.633 42.633C126.826 41.5284 125.746 40.9753 124.387 40.9753C123.466 40.9753 122.629 41.2833 121.878 41.8907C121.128 42.5034 120.64 43.3034 120.411 44.2942C120.297 44.7563 120.236 45.1326 120.236 45.4302V48.2327C120.236 49.4528 120.612 50.4839 121.358 51.3276C122.107 52.1661 123.081 52.5897 124.282 52.5897C125.69 52.5897 126.784 52.0453 127.565 50.9652C128.349 49.8817 128.742 48.4533 128.742 46.6783ZM154.153 48.6126C154.153 50.5959 153.46 52.2081 152.082 53.4527C150.565 54.8111 148.448 55.492 145.735 55.492C143.227 55.492 141.217 55.0089 139.701 54.0408L140.564 50.9302C142.201 51.9 143.999 52.3831 145.957 52.3831C147.365 52.3831 148.459 52.0645 149.24 51.4326C150.023 50.799 150.418 49.9517 150.418 48.8944C150.418 47.9474 150.091 47.1544 149.448 46.5085C148.802 45.8643 147.734 45.2639 146.234 44.7125C142.154 43.1914 140.112 40.9665 140.112 38.0397C140.112 36.1282 140.834 34.5632 142.273 33.3396C143.712 32.1178 145.621 31.5069 147.995 31.5069C150.115 31.5069 151.882 31.8762 153.285 32.6132L152.348 35.6555C151.028 34.9413 149.538 34.5842 147.871 34.5842C146.554 34.5842 145.521 34.9081 144.782 35.5523C144.16 36.1282 143.845 36.8301 143.845 37.6633C143.845 38.5823 144.204 39.3456 144.919 39.9442C145.538 40.4956 146.67 41.096 148.305 41.7402C150.311 42.5489 151.786 43.4907 152.73 44.5725C153.68 45.6543 154.153 47.0039 154.153 48.6126ZM166.527 41.1503H162.412V49.3058C162.412 51.3801 163.137 52.4146 164.59 52.4146C165.258 52.4146 165.811 52.3586 166.249 52.2413L166.352 55.0754C165.617 55.3502 164.648 55.4885 163.449 55.4885C161.975 55.4885 160.822 55.0386 159.991 54.1389C159.163 53.2391 158.746 51.732 158.746 49.6104V41.1433H156.294V38.3425H158.746V35.2669L162.412 34.1606V38.3425H166.527V41.1503ZM185.055 46.61C185.055 49.192 184.317 51.3118 182.842 52.9695C181.3 54.6763 179.248 55.527 176.689 55.527C174.221 55.527 172.258 54.7095 170.794 53.0763C169.33 51.4396 168.598 49.3776 168.598 46.8901C168.598 44.2872 169.355 42.1551 170.862 40.4974C172.373 38.8379 174.408 38.0082 176.966 38.0082C179.431 38.0082 181.412 38.8274 182.911 40.4624C184.343 42.0483 185.055 44.0964 185.055 46.61ZM181.186 46.6958C181.186 45.1572 180.853 43.8373 180.186 42.7327C179.403 41.3989 178.283 40.7319 176.831 40.7319C175.336 40.7319 174.189 41.3989 173.408 42.7327C172.739 43.8373 172.407 45.1799 172.407 46.7658C172.407 48.3063 172.739 49.6296 173.408 50.7307C174.215 52.0645 175.341 52.7315 176.8 52.7315C178.227 52.7315 179.346 52.0505 180.155 50.6974C180.841 49.5666 181.186 48.238 181.186 46.6958ZM197.195 41.6317C196.807 41.5616 196.413 41.527 196.018 41.5284C194.705 41.5284 193.689 42.022 192.975 43.0163C192.355 43.8916 192.044 44.9979 192.044 46.3335V55.1471H188.31V43.6395C188.314 41.8762 188.278 40.113 188.202 38.3513H191.453L191.59 41.5652H191.693C192.089 40.4606 192.709 39.5696 193.56 38.9027C194.339 38.3199 195.285 38.0043 196.258 38.0029C196.603 38.0029 196.915 38.0274 197.191 38.0712L197.195 41.6317ZM213.89 45.9536C213.9 46.5209 213.854 47.0879 213.753 47.6463H202.554C202.596 49.3058 203.139 50.5766 204.179 51.4519C205.123 52.2326 206.343 52.6247 207.842 52.6247C209.5 52.6247 211.013 52.3621 212.374 51.8317L212.959 54.4207C211.369 55.1139 209.492 55.4587 207.326 55.4587C204.72 55.4587 202.675 54.692 201.187 53.1621C199.702 51.6304 198.958 49.5719 198.958 46.9934C198.958 44.4622 199.65 42.3529 201.035 40.6707C202.484 38.8747 204.444 37.9767 206.909 37.9767C209.331 37.9767 211.164 38.8747 212.409 40.6707C213.395 42.0938 213.89 43.8583 213.89 45.9536ZM210.33 44.9856C210.357 43.8775 210.112 42.9235 209.605 42.1166C208.959 41.0768 207.965 40.5586 206.632 40.5586C205.412 40.5586 204.417 41.0645 203.661 42.0798C203.039 42.8868 202.67 43.8565 202.556 44.9821L210.33 44.9856Z" fill="white"/>
<path d="M79.162 23.6158C78.1237 23.6158 77.2255 23.565 76.4778 23.4793V12.2167C77.5235 12.0552 78.5802 11.9756 79.6383 11.9786C83.9194 11.9786 85.8909 14.0844 85.8909 17.5171C85.8909 21.4767 83.5622 23.6158 79.162 23.6158ZM79.7889 13.4227C79.2111 13.4227 78.719 13.4577 78.3111 13.5418V22.1034C78.5317 22.1384 78.9554 22.1541 79.5507 22.1541C82.3558 22.1541 83.9526 20.5577 83.9526 17.5679C83.9526 14.9019 82.5081 13.4227 79.7889 13.4227ZM92.035 23.7016C89.6222 23.7016 88.0586 21.9003 88.0586 19.4549C88.0586 16.9062 89.6555 15.0892 92.1716 15.0892C94.5493 15.0892 96.148 16.8047 96.148 19.3201C96.148 21.9003 94.5003 23.7016 92.035 23.7016ZM92.105 16.4301C90.7796 16.4301 89.9304 17.6694 89.9304 19.4024C89.9304 21.1021 90.7971 22.3414 92.0875 22.3414C93.378 22.3414 94.2447 21.0163 94.2447 19.3674C94.2447 17.6869 93.3955 16.4301 92.105 16.4301ZM109.907 15.259L107.324 23.5143H105.642L104.572 19.9293C104.306 19.0524 104.084 18.1626 103.908 17.2633H103.873C103.738 18.163 103.483 19.0645 103.211 19.9293L102.073 23.5143H100.373L97.9427 15.259H99.8284L100.763 19.1836C100.984 20.1183 101.17 21.0006 101.324 21.8338H101.359C101.494 21.1389 101.714 20.2706 102.038 19.2011L103.211 15.2607H104.707L105.829 19.117C106.1 20.0518 106.321 20.9691 106.493 21.8355H106.542C106.661 20.9866 106.848 20.0851 107.102 19.117L108.105 15.2607L109.907 15.259ZM119.415 23.5143H117.58V18.774C117.58 17.3141 117.019 16.5824 115.914 16.5824C114.827 16.5824 114.079 17.5171 114.079 18.6042V23.5143H112.244V17.6186C112.244 16.8887 112.227 16.1062 112.176 15.2572H113.79L113.876 16.5316H113.927C114.421 15.6493 115.422 15.0892 116.545 15.0892C118.278 15.0892 119.416 16.4143 119.416 18.5709L119.415 23.5143ZM124.475 23.5143H122.638V11.4709H124.475V23.5143ZM131.165 23.7016C128.754 23.7016 127.189 21.9003 127.189 19.4549C127.189 16.9062 128.786 15.0892 131.3 15.0892C133.679 15.0892 135.276 16.8047 135.276 19.3201C135.278 21.9003 133.629 23.7016 131.165 23.7016ZM131.233 16.4301C129.908 16.4301 129.059 17.6694 129.059 19.4024C129.059 21.1021 129.927 22.3414 131.214 22.3414C132.506 22.3414 133.371 21.0163 133.371 19.3674C133.373 17.6869 132.526 16.4301 131.233 16.4301ZM142.511 23.5143L142.378 22.5637H142.329C141.769 23.3287 140.951 23.7016 139.915 23.7016C138.435 23.7016 137.384 22.6653 137.384 21.2719C137.384 19.2343 139.151 18.1805 142.21 18.1805V18.0283C142.21 16.9412 141.634 16.3968 140.496 16.3968C139.682 16.3968 138.967 16.6016 138.339 17.0095L137.966 15.8034C138.729 15.3273 139.682 15.0892 140.801 15.0892C142.958 15.0892 144.047 16.227 144.047 18.5044V21.545C144.047 22.3782 144.084 23.0241 144.166 23.516L142.511 23.5143ZM142.259 19.4024C140.221 19.4024 139.198 19.896 139.198 21.0671C139.198 21.9336 139.725 22.3572 140.457 22.3572C141.391 22.3572 142.259 21.6447 142.259 20.6767V19.4024ZM152.957 23.5143L152.872 22.1891H152.821C152.294 23.1904 151.408 23.7016 150.17 23.7016C148.179 23.7016 146.705 21.9511 146.705 19.4882C146.705 16.9062 148.233 15.0874 150.32 15.0874C151.425 15.0874 152.208 15.4603 152.649 16.2095H152.686V11.4709H154.523V21.2894C154.523 22.0876 154.542 22.8351 154.591 23.5143H152.957ZM152.686 18.6567C152.686 17.5014 151.921 16.5158 150.753 16.5158C149.392 16.5158 148.561 17.7219 148.561 19.4199C148.561 21.0846 149.424 22.2242 150.716 22.2242C151.87 22.2242 152.686 21.2211 152.686 20.0326V18.6567ZM166.168 23.7016C163.757 23.7016 162.194 21.9003 162.194 19.4549C162.194 16.9062 163.79 15.0892 166.305 15.0892C168.684 15.0892 170.281 16.8047 170.281 19.3201C170.283 21.9003 168.635 23.7016 166.168 23.7016ZM166.237 16.4301C164.913 16.4301 164.064 17.6694 164.064 19.4024C164.064 21.1021 164.93 22.3414 166.219 22.3414C167.511 22.3414 168.376 21.0163 168.376 19.3674C168.38 17.6869 167.53 16.4301 166.237 16.4301ZM180.15 23.5143H178.313V18.774C178.313 17.3141 177.753 16.5824 176.648 16.5824C175.56 16.5824 174.814 17.5171 174.814 18.6042V23.5143H172.978V17.6186C172.978 16.8887 172.96 16.1062 172.909 15.2572H174.524L174.61 16.5316H174.66C175.152 15.6493 176.156 15.0874 177.276 15.0874C179.01 15.0874 180.15 16.4126 180.15 18.5691V23.5143ZM192.495 16.6349H190.477V20.6435C190.477 21.664 190.83 22.1734 191.545 22.1734C191.869 22.1734 192.14 22.1384 192.359 22.0876L192.41 23.481C192.054 23.6175 191.578 23.6858 190.986 23.6858C189.54 23.6858 188.675 22.8876 188.675 20.7975V16.6349H187.47V15.259H188.675V13.7466L190.477 13.2022V15.2572H192.495V16.6349ZM202.21 23.5143H200.376V18.809C200.376 17.3316 199.818 16.5841 198.711 16.5841C197.761 16.5841 196.875 17.23 196.875 18.5376V23.5143H195.041V11.4709H196.875V16.4301H196.911C197.489 15.5303 198.326 15.0874 199.394 15.0874C201.142 15.0874 202.21 16.4458 202.21 18.6042V23.5143ZM212.162 19.8277H206.655C206.69 21.3909 207.725 22.2732 209.257 22.2732C210.071 22.2732 210.821 22.1366 211.483 21.8828L211.768 23.1572C210.987 23.4968 210.068 23.6666 208.998 23.6666C206.415 23.6666 204.887 22.0351 204.887 19.5057C204.887 16.9745 206.452 15.0717 208.792 15.0717C210.901 15.0717 212.225 16.6349 212.225 18.9963C212.237 19.2749 212.216 19.554 212.162 19.8277ZM210.479 18.5201C210.479 17.2458 209.837 16.346 208.664 16.346C207.61 16.346 206.776 17.2633 206.657 18.5201H210.479Z" fill="white"/>
<defs>
<linearGradient id="paint0_linear_0_406" x1="173.272" y1="70.1859" x2="173.272" y2="-182.268" gradientUnits="userSpaceOnUse">
<stop stop-color="#1A1A1A" stop-opacity="0.1"/>
<stop offset="0.123" stop-color="#212121" stop-opacity="0.151"/>
<stop offset="0.308" stop-color="#353535" stop-opacity="0.227"/>
<stop offset="0.532" stop-color="#575757" stop-opacity="0.318"/>
<stop offset="0.783" stop-color="#858585" stop-opacity="0.421"/>
<stop offset="1" stop-color="#B3B3B3" stop-opacity="0.51"/>
</linearGradient>
</defs>
</svg>
