<svg width="230" height="23" viewBox="0 0 230 23" fill="none" xmlns="http://www.w3.org/2000/svg">
<path d="M15.0844 14.0072H14.9951L14.0187 11.73C14.1843 11.8025 14.3627 11.8411 14.5434 11.8436C14.6152 11.8436 14.684 11.8151 14.7347 11.7643C14.7854 11.7136 14.8139 11.6448 14.8139 11.5731V9.40943C14.8139 9.3377 14.7854 9.2689 14.7347 9.21818C14.684 9.16746 14.6152 9.13897 14.5434 9.13897C14.2618 9.14049 13.9876 9.22993 13.7593 9.39478C13.5309 9.55964 13.3597 9.79168 13.2696 10.0585C13.19 9.94742 13.0884 9.85383 12.9712 9.78358C12.854 9.71333 12.7235 9.66791 12.588 9.65014C12.4162 9.62794 12.2418 9.63896 12.0741 9.68259H11.8388C11.3818 9.68259 11.1789 9.41213 10.8598 8.97128L10.7002 8.7468C10.8639 8.73845 11.0225 8.68715 11.16 8.59805C11.2644 8.5223 11.3527 8.42668 11.42 8.31668C11.4873 8.20668 11.5322 8.08446 11.5522 7.95706C11.6401 7.90642 11.7169 7.83869 11.7783 7.75786C11.8396 7.67704 11.8841 7.58476 11.9092 7.48646C11.9206 7.40893 11.913 7.32978 11.8871 7.25582C11.8612 7.18186 11.8177 7.11529 11.7604 7.06184C11.65 6.87276 11.5895 6.65869 11.5846 6.43978C11.6544 6.4356 11.7199 6.40453 11.7673 6.35309C11.8147 6.30165 11.8404 6.23385 11.8388 6.16391C11.8389 5.87725 11.7819 5.59345 11.6713 5.32898C11.5608 5.06451 11.3987 4.82466 11.1946 4.62335C10.9906 4.42204 10.7485 4.26329 10.4826 4.15632C10.2166 4.04935 9.93205 3.99629 9.64542 4.00024C9.08293 4.01131 8.54657 4.23969 8.14876 4.6375C7.75094 5.03531 7.52256 5.57168 7.51149 6.13416C7.50643 6.42093 7.55887 6.7058 7.66571 6.97197C7.77255 7.23814 7.93162 7.48021 8.13355 7.68389C8.19339 7.74337 8.2566 7.79936 8.32287 7.85158C7.2789 8.10581 6.72986 9.08488 6.44858 9.93412C6.36855 9.85347 6.27332 9.78947 6.16841 9.74584C6.06349 9.7022 5.95097 9.67979 5.83735 9.67989H2.96506C2.82083 9.67965 2.67885 9.71569 2.55218 9.78469C2.42552 9.85369 2.31825 9.95344 2.24023 10.0748C2.20114 10.135 2.18758 10.2083 2.20255 10.2786C2.21751 10.3488 2.25976 10.4103 2.32002 10.4493C2.38027 10.4884 2.45359 10.502 2.52384 10.487C2.59408 10.4721 2.65551 10.4298 2.6946 10.3696C2.72375 10.3244 2.76381 10.2874 2.81109 10.2618C2.85837 10.2363 2.91133 10.2231 2.96506 10.2235H3.4546V11.0349C3.4546 11.1066 3.48309 11.1754 3.53381 11.2261C3.58453 11.2769 3.65333 11.3053 3.72506 11.3053H5.07735C5.14908 11.3053 5.21788 11.2769 5.2686 11.2261C5.31932 11.1754 5.34781 11.1066 5.34781 11.0349V10.2208H5.83735C5.87961 10.2208 5.92146 10.2291 5.96051 10.2453C5.99956 10.2615 6.03504 10.2852 6.06493 10.3151C6.09481 10.345 6.11852 10.3804 6.13469 10.4195C6.15087 10.4585 6.15919 10.5004 6.15919 10.5427V12.6063C6.15848 12.6911 6.12426 12.7723 6.06397 12.8321C6.00369 12.8919 5.92224 12.9254 5.83735 12.9254H2.96506C2.88761 12.9275 2.81206 12.9012 2.75274 12.8513C2.69342 12.8015 2.65445 12.7316 2.64322 12.6549H3.18414C3.25587 12.6549 3.32466 12.6264 3.37538 12.5757C3.4261 12.525 3.4546 12.4562 3.4546 12.3845C3.4546 12.3128 3.4261 12.244 3.37538 12.1932C3.32466 12.1425 3.25587 12.114 3.18414 12.114H2.64322V11.5731H2.91368C2.98541 11.5731 3.0542 11.5446 3.10492 11.4939C3.15564 11.4432 3.18414 11.3744 3.18414 11.3026C3.18414 11.2309 3.15564 11.1621 3.10492 11.1114C3.0542 11.0607 2.98541 11.0322 2.91368 11.0322H1.56138C1.48965 11.0322 1.42086 11.0607 1.37014 11.1114C1.31941 11.1621 1.29092 11.2309 1.29092 11.3026C1.29092 11.3744 1.31941 11.4432 1.37014 11.4939C1.42086 11.5446 1.48965 11.5731 1.56138 11.5731H2.1023V12.114H1.02046C0.948729 12.114 0.879937 12.1425 0.829216 12.1932C0.778495 12.244 0.75 12.3128 0.75 12.3845C0.75 12.4562 0.778495 12.525 0.829216 12.5757C0.879937 12.6264 0.948729 12.6549 1.02046 12.6549H2.1023C2.11472 12.874 2.21042 13.0801 2.36981 13.2309C2.52919 13.3818 2.74021 13.466 2.95966 13.4663H4.31195C4.1868 13.589 4.0802 13.7294 3.99552 13.8828C3.63434 14.5911 3.44882 15.3759 3.4546 16.1709C3.4546 16.2426 3.48309 16.3114 3.53381 16.3622C3.58453 16.4129 3.65333 16.4414 3.72506 16.4414H4.55537C4.62458 16.9612 4.88021 17.4381 5.27471 17.7836C5.66921 18.129 6.17574 18.3195 6.70011 18.3195C7.22448 18.3195 7.73101 18.129 8.12551 17.7836C8.52002 17.4381 8.77564 16.9612 8.84486 16.4414H12.9396C12.9917 16.8546 13.1619 17.244 13.4298 17.5628C13.6977 17.8817 14.052 18.1165 14.4501 18.2389C14.8481 18.3614 15.2731 18.3664 15.6739 18.2533C16.0747 18.1402 16.4344 17.9138 16.7097 17.6013C16.9851 17.2888 17.1644 16.9035 17.2261 16.4917C17.2878 16.0798 17.2294 15.6588 17.0578 15.2794C16.8862 14.8999 16.6087 14.578 16.2586 14.3523C15.9086 14.1267 15.5008 14.0069 15.0844 14.0072ZM4.80689 10.7617H3.99552V10.2208H4.80689V10.7617ZM14.273 9.72586V11.2567C14.1145 11.2009 13.9772 11.0973 13.8801 10.9602C13.783 10.8231 13.7309 10.6593 13.7309 10.4913C13.7309 10.3233 13.783 10.1594 13.8801 10.0223C13.9772 9.88519 14.1145 9.78162 14.273 9.72586ZM12.5096 10.1829C12.6156 10.1988 12.7141 10.2471 12.7916 10.3212C12.8691 10.3953 12.9217 10.4915 12.9423 10.5967L13.0126 10.7617C12.6361 10.9553 12.216 11.0485 11.7929 11.0322C11.7556 10.8715 11.7751 10.7029 11.8481 10.555C11.9211 10.4071 12.043 10.289 12.1931 10.2208C12.2951 10.1877 12.4028 10.1758 12.5096 10.1856V10.1829ZM11.1762 7.54326C11.1312 7.56594 11.0934 7.60075 11.0671 7.64376C11.0409 7.68677 11.0271 7.73627 11.0275 7.78667C11.0255 7.85476 11.0093 7.92168 10.9799 7.98315C10.9506 8.04462 10.9088 8.0993 10.8571 8.14368C10.7029 8.24645 10.4162 8.22211 10.0457 8.07606C10.0259 8.07387 10.006 8.07387 9.9862 8.07606L9.94563 8.0409V7.00504C9.94563 6.85369 10.0058 6.70854 10.1128 6.60152C10.2198 6.4945 10.3649 6.43437 10.5163 6.43437H11.0275C11.036 6.78447 11.1459 7.12458 11.3439 7.41344C11.295 7.46577 11.2384 7.51045 11.1762 7.54596V7.54326ZM8.05241 6.13957C8.06594 5.71994 8.23868 5.32118 8.53556 5.0243C8.83244 4.72743 9.23119 4.55468 9.65083 4.54115H9.67517C10.0588 4.5409 10.4302 4.6766 10.7233 4.92417C11.0164 5.17173 11.2123 5.51515 11.2763 5.89345H10.5163C10.2217 5.89417 9.93938 6.01151 9.73107 6.21982C9.52276 6.42813 9.40542 6.71045 9.40471 7.00504V7.76503C9.0227 7.7005 8.67639 7.50143 8.42837 7.20381C8.18035 6.90619 8.047 6.52965 8.05241 6.14228V6.13957ZM8.86379 8.32759C9.74819 8.32759 10.0727 8.79007 10.4162 9.2769C10.6651 9.63391 10.9571 10.0234 11.444 10.1613C11.2908 10.4087 11.2216 10.699 11.2465 10.9889C10.9109 10.9156 10.5942 10.7728 10.3171 10.5697C10.0399 10.3666 9.80836 10.1077 9.6373 9.80971C9.62257 9.77396 9.60034 9.74179 9.57212 9.71536C9.5439 9.68893 9.51033 9.66886 9.4737 9.6565C9.43706 9.64415 9.3982 9.63979 9.35974 9.64372C9.32127 9.64765 9.2841 9.65979 9.25072 9.67931C9.21735 9.69883 9.18854 9.72527 9.16625 9.75687C9.14396 9.78846 9.12871 9.82447 9.12152 9.86246C9.11432 9.90045 9.11536 9.93954 9.12455 9.97709C9.13375 10.0146 9.15089 10.0498 9.17482 10.0802C9.27286 10.2447 9.38508 10.4003 9.51019 10.5454L9.48585 10.5616C9.23373 10.8516 9.05638 11.1988 8.96927 11.5731H6.70011V11.3026C6.71904 11.1377 7.02737 8.32759 8.86379 8.32759ZM6.70011 12.6036V12.114H9.13425C9.18834 12.114 10.4865 12.1302 10.4865 13.4663V14.8186H9.40471V14.2777C9.41154 14.0983 9.38124 13.9194 9.3157 13.7522C9.25016 13.5851 9.15079 13.4332 9.02383 13.3063C8.89687 13.1793 8.74505 13.0799 8.57789 13.0144C8.41073 12.9489 8.23183 12.9186 8.05241 12.9254H6.63791C6.67921 12.8231 6.70034 12.7138 6.70011 12.6036ZM6.70011 17.7937C6.3169 17.7933 5.9462 17.6573 5.65364 17.4098C5.36109 17.1623 5.16556 16.8192 5.1017 16.4414H5.65614C5.71842 16.6706 5.85438 16.8729 6.04306 17.0171C6.23173 17.1614 6.46262 17.2395 6.70011 17.2395C6.9376 17.2395 7.1685 17.1614 7.35717 17.0171C7.54584 16.8729 7.6818 16.6706 7.74409 16.4414H8.29853C8.23466 16.8192 8.03914 17.1623 7.74658 17.4098C7.45403 17.6573 7.08332 17.7933 6.70011 17.7937ZM6.23492 16.4414H7.1653C7.11741 16.5221 7.04933 16.589 6.96777 16.6354C6.88621 16.6818 6.79397 16.7063 6.70011 16.7063C6.60625 16.7063 6.51401 16.6818 6.43245 16.6354C6.35089 16.589 6.28282 16.5221 6.23492 16.4414ZM3.99552 15.9005C4.03002 15.2779 4.19789 14.6701 4.48775 14.1181C4.59541 13.918 4.75606 13.7513 4.95212 13.6363C5.14818 13.5213 5.37209 13.4625 5.59934 13.4663H8.05241C8.1605 13.4605 8.26861 13.4774 8.36971 13.5161C8.4708 13.5548 8.56261 13.6144 8.63915 13.691C8.7157 13.7675 8.77526 13.8593 8.81396 13.9604C8.85267 14.0615 8.86964 14.1696 8.86379 14.2777V15.0891C8.86379 15.3817 8.95869 15.6664 9.13425 15.9005H3.99552ZM10.2161 15.9005C10.0487 15.9 9.88553 15.8478 9.74899 15.7509C9.61244 15.6541 9.50919 15.5174 9.45339 15.3595H10.757C10.8276 15.355 10.8984 15.3652 10.9648 15.3896C11.0312 15.414 11.0918 15.4519 11.1427 15.5011C11.1937 15.5502 11.2338 15.6094 11.2605 15.6749C11.2872 15.7404 11.3 15.8108 11.2979 15.8815C11.2083 15.8935 11.1179 15.8998 11.0275 15.9005H10.2161ZM11.9497 15.584C11.9107 15.6282 11.8661 15.6673 11.8172 15.7003C11.7875 15.4958 11.6959 15.3054 11.5547 15.1545C11.4135 15.0036 11.2295 14.8996 11.0275 14.8565V13.4663C11.0519 13.025 10.9107 12.5905 10.6315 12.2478C10.3524 11.9052 9.95541 11.679 9.5183 11.6137C9.58763 11.3711 9.70642 11.1455 9.86719 10.951C9.87419 10.9416 9.88051 10.9316 9.88613 10.9213C10.3059 11.2618 10.8111 11.4807 11.3466 11.5542L12.1093 14.87C12.1521 15.1197 12.0948 15.3763 11.9497 15.584ZM12.6502 14.7591L11.9065 11.5731C12.3641 11.5773 12.8163 11.4735 13.2263 11.2702L14.5029 14.2452L13.3237 15.9005H12.3798C12.4985 15.7378 12.5835 15.553 12.63 15.357C12.6764 15.1611 12.6833 14.9578 12.6502 14.7591ZM15.0844 15.9005H14.6192C14.6787 15.7973 14.7706 15.7167 14.8806 15.6712C14.9906 15.6256 15.1126 15.6176 15.2276 15.6484C15.3426 15.6792 15.4443 15.7472 15.5168 15.8416C15.5892 15.9361 15.6285 16.0518 15.6285 16.1709C15.6285 16.29 15.5892 16.4057 15.5168 16.5002C15.4443 16.5947 15.3426 16.6626 15.2276 16.6934C15.1126 16.7242 14.9906 16.7162 14.8806 16.6707C14.7706 16.6251 14.6787 16.5445 14.6192 16.4414H15.0844C15.1561 16.4414 15.2249 16.4129 15.2756 16.3622C15.3263 16.3114 15.3548 16.2426 15.3548 16.1709C15.3548 16.0992 15.3263 16.0304 15.2756 15.9797C15.2249 15.929 15.1561 15.9005 15.0844 15.9005ZM13.9863 15.9005L14.081 15.7679C14.0646 15.8112 14.0511 15.8555 14.0404 15.9005H13.9863ZM15.0844 17.7937C14.7012 17.7933 14.3304 17.6573 14.0379 17.4098C13.7453 17.1623 13.5498 16.8192 13.4859 16.4414H14.0404C14.0996 16.6695 14.2317 16.8721 14.4166 17.0182C14.6016 17.1644 14.8291 17.2462 15.0648 17.2511C15.3004 17.2561 15.5312 17.1839 15.7221 17.0457C15.913 16.9074 16.0535 16.7106 16.1223 16.4851C16.191 16.2597 16.1843 16.0179 16.1031 15.7967C16.0218 15.5754 15.8706 15.3867 15.6723 15.2593C15.474 15.1319 15.2395 15.0728 15.0045 15.0909C14.7695 15.1089 14.5468 15.2033 14.3703 15.3595L14.9464 14.5482C14.9924 14.5482 15.0384 14.5482 15.0844 14.5482C15.5147 14.5482 15.9275 14.7191 16.2318 15.0235C16.5361 15.3278 16.7071 15.7405 16.7071 16.1709C16.7071 16.6013 16.5361 17.0141 16.2318 17.3184C15.9275 17.6227 15.5147 17.7937 15.0844 17.7937Z" fill="#F54749"/>
<path d="M22.05 16V6.298H27.51V7.32H23.324V10.61H26.628V11.618H23.324V16H22.05ZM30.1873 8.314V9.616C30.6446 8.664 31.4239 8.188 32.5253 8.188V9.518H32.1893C31.5359 9.518 31.0366 9.69067 30.6913 10.036C30.3553 10.372 30.1873 10.96 30.1873 11.8V16H28.9133V8.314H30.1873ZM37.2876 16.126C36.1862 16.126 35.2902 15.762 34.5996 15.034C33.9089 14.306 33.5636 13.3447 33.5636 12.15C33.5636 10.9553 33.9136 9.99867 34.6136 9.28C35.3136 8.552 36.2189 8.188 37.3296 8.188C38.4496 8.188 39.3456 8.53333 40.0176 9.224C40.6989 9.90533 41.0396 10.778 41.0396 11.842C41.0396 12.1127 41.0209 12.3647 40.9836 12.598H34.8656C34.9029 13.3633 35.1409 13.97 35.5796 14.418C36.0276 14.8567 36.5969 15.076 37.2876 15.076C37.8102 15.076 38.2489 14.9593 38.6036 14.726C38.9676 14.4927 39.2336 14.1847 39.4016 13.802H40.7736C40.5309 14.474 40.1109 15.0293 39.5136 15.468C38.9256 15.9067 38.1836 16.126 37.2876 16.126ZM39.7096 11.674C39.7002 10.9367 39.4669 10.3487 39.0096 9.91C38.5522 9.462 37.9829 9.238 37.3016 9.238C36.6296 9.238 36.0696 9.45733 35.6216 9.896C35.1736 10.3253 34.9262 10.918 34.8796 11.674H39.7096ZM45.8462 16.126C44.7448 16.126 43.8488 15.762 43.1582 15.034C42.4675 14.306 42.1222 13.3447 42.1222 12.15C42.1222 10.9553 42.4722 9.99867 43.1722 9.28C43.8722 8.552 44.7775 8.188 45.8882 8.188C47.0082 8.188 47.9042 8.53333 48.5762 9.224C49.2575 9.90533 49.5982 10.778 49.5982 11.842C49.5982 12.1127 49.5795 12.3647 49.5422 12.598H43.4242C43.4615 13.3633 43.6995 13.97 44.1382 14.418C44.5862 14.8567 45.1555 15.076 45.8462 15.076C46.3688 15.076 46.8075 14.9593 47.1622 14.726C47.5262 14.4927 47.7922 14.1847 47.9602 13.802H49.3322C49.0895 14.474 48.6695 15.0293 48.0722 15.468C47.4842 15.9067 46.7422 16.126 45.8462 16.126ZM48.2682 11.674C48.2588 10.9367 48.0255 10.3487 47.5682 9.91C47.1108 9.462 46.5415 9.238 45.8602 9.238C45.1882 9.238 44.6282 9.45733 44.1802 9.896C43.7322 10.3253 43.4848 10.918 43.4382 11.674H48.2682ZM56.656 15.02H58.448C59.6707 15.02 60.604 14.684 61.248 14.012C61.892 13.34 62.214 12.402 62.214 11.198C62.214 9.994 61.892 9.056 61.248 8.384C60.604 7.712 59.6707 7.376 58.448 7.376H56.656V15.02ZM58.448 6.298C60.016 6.298 61.2527 6.73667 62.158 7.614C63.0634 8.49133 63.516 9.686 63.516 11.198C63.516 12.71 63.0634 13.8907 62.158 14.74C61.2527 15.58 60.016 16 58.448 16H55.382V6.298H58.448ZM68.3501 16.126C67.2487 16.126 66.3527 15.762 65.6621 15.034C64.9714 14.306 64.6261 13.3447 64.6261 12.15C64.6261 10.9553 64.9761 9.99867 65.6761 9.28C66.3761 8.552 67.2814 8.188 68.3921 8.188C69.5121 8.188 70.4081 8.53333 71.0801 9.224C71.7614 9.90533 72.1021 10.778 72.1021 11.842C72.1021 12.1127 72.0834 12.3647 72.0461 12.598H65.9281C65.9654 13.3633 66.2034 13.97 66.6421 14.418C67.0901 14.8567 67.6594 15.076 68.3501 15.076C68.8727 15.076 69.3114 14.9593 69.6661 14.726C70.0301 14.4927 70.2961 14.1847 70.4641 13.802H71.8361C71.5934 14.474 71.1734 15.0293 70.5761 15.468C69.9881 15.9067 69.2461 16.126 68.3501 16.126ZM70.7721 11.674C70.7627 10.9367 70.5294 10.3487 70.0721 9.91C69.6147 9.462 69.0454 9.238 68.3641 9.238C67.6921 9.238 67.1321 9.45733 66.6841 9.896C66.2361 10.3253 65.9887 10.918 65.9421 11.674H70.7721ZM73.6887 16V5.64H74.9627V16H73.6887ZM78.3256 6.83C78.1576 6.998 77.9523 7.082 77.7096 7.082C77.467 7.082 77.2616 6.998 77.0936 6.83C76.935 6.662 76.8556 6.45667 76.8556 6.214C76.8556 5.97133 76.9396 5.766 77.1076 5.598C77.2756 5.43 77.4763 5.346 77.7096 5.346C77.9523 5.346 78.1576 5.43 78.3256 5.598C78.4936 5.766 78.5776 5.97133 78.5776 6.214C78.5776 6.45667 78.4936 6.662 78.3256 6.83ZM77.0656 16V8.314H78.3396V16H77.0656ZM79.5606 8.314H80.9186L83.2706 14.81L85.6366 8.314H87.0086L83.9986 16H82.5566L79.5606 8.314ZM91.4419 16.126C90.3405 16.126 89.4445 15.762 88.7539 15.034C88.0632 14.306 87.7179 13.3447 87.7179 12.15C87.7179 10.9553 88.0679 9.99867 88.7679 9.28C89.4679 8.552 90.3732 8.188 91.4839 8.188C92.6039 8.188 93.4999 8.53333 94.1719 9.224C94.8532 9.90533 95.1939 10.778 95.1939 11.842C95.1939 12.1127 95.1752 12.3647 95.1379 12.598H89.0199C89.0572 13.3633 89.2952 13.97 89.7339 14.418C90.1819 14.8567 90.7512 15.076 91.4419 15.076C91.9645 15.076 92.4032 14.9593 92.7579 14.726C93.1219 14.4927 93.3879 14.1847 93.5559 13.802H94.9279C94.6852 14.474 94.2652 15.0293 93.6679 15.468C93.0799 15.9067 92.3379 16.126 91.4419 16.126ZM93.8639 11.674C93.8545 10.9367 93.6212 10.3487 93.1639 9.91C92.7065 9.462 92.1372 9.238 91.4559 9.238C90.7839 9.238 90.2239 9.45733 89.7759 9.896C89.3279 10.3253 89.0805 10.918 89.0339 11.674H93.8639ZM98.0545 8.314V9.616C98.5118 8.664 99.2911 8.188 100.392 8.188V9.518H100.056C99.4031 9.518 98.9038 9.69067 98.5585 10.036C98.2225 10.372 98.0545 10.96 98.0545 11.8V16H96.7805V8.314H98.0545ZM104.091 15.874L101.053 8.314H102.453L104.805 14.53L107.199 8.314H108.515L103.881 19.598H102.565L104.091 15.874Z" fill="#241415"/>
<rect x="114.5" y="2.5" width="1" height="18" fill="#9F9E9A" fill-opacity="0.2"/>
<path d="M137 11.5C137 15.64 133.64 19 129.5 19C125.36 19 122 15.64 122 11.5C122 7.36 125.36 4 129.5 4C133.64 4 137 7.36 137 11.5Z" stroke="#F54749" stroke-width="1.2" stroke-linecap="round" stroke-linejoin="round"/>
<path d="M132.283 13.885L129.958 12.4975C129.553 12.2575 129.223 11.68 129.223 11.2075V8.13251" stroke="#F54749" stroke-width="1.2" stroke-linecap="round" stroke-linejoin="round"/>
<path d="M142.284 15.86V14.95C142.508 14.754 142.858 14.4507 143.334 14.04C143.819 13.6293 144.179 13.3213 144.412 13.116C144.645 12.9013 144.953 12.6167 145.336 12.262C145.719 11.898 146.008 11.5947 146.204 11.352C146.409 11.1093 146.619 10.8293 146.834 10.512C147.235 9.91467 147.436 9.32667 147.436 8.748C147.436 8.16 147.282 7.68867 146.974 7.334C146.675 6.97933 146.199 6.802 145.546 6.802C144.902 6.802 144.407 7.00267 144.062 7.404C143.717 7.796 143.53 8.31867 143.502 8.972H142.284C142.321 7.92667 142.634 7.124 143.222 6.564C143.819 5.99467 144.589 5.71 145.532 5.71C146.484 5.71 147.245 5.98067 147.814 6.522C148.393 7.054 148.682 7.782 148.682 8.706C148.682 9.81667 148.141 10.96 147.058 12.136C146.666 12.556 146.363 12.864 146.148 13.06C145.551 13.6387 144.911 14.2127 144.23 14.782H148.99V15.86H142.284ZM150.867 5.766H156.929V6.872H152.043V10.078C152.249 9.77 152.561 9.51333 152.981 9.308C153.401 9.10267 153.877 9 154.409 9C154.951 9 155.441 9.10267 155.879 9.308C156.327 9.504 156.673 9.77467 156.915 10.12C157.373 10.792 157.601 11.5573 157.601 12.416C157.601 13.4707 157.307 14.334 156.719 15.006C156.131 15.6687 155.305 16 154.241 16C153.187 16 152.356 15.7527 151.749 15.258C151.152 14.7633 150.779 14.11 150.629 13.298H151.847C151.978 13.802 152.244 14.1987 152.645 14.488C153.056 14.7773 153.593 14.922 154.255 14.922C154.927 14.922 155.45 14.698 155.823 14.25C156.206 13.802 156.397 13.2 156.397 12.444C156.397 11.688 156.206 11.1093 155.823 10.708C155.45 10.2973 154.89 10.092 154.143 10.092C153.639 10.092 153.205 10.2227 152.841 10.484C152.477 10.7453 152.207 11.1 152.029 11.548H150.867V5.766ZM159.796 11.422V10.33H165.382V11.422H159.796ZM167.537 8.16C167.612 7.348 167.948 6.71333 168.545 6.256C169.152 5.78933 169.922 5.556 170.855 5.556C171.798 5.556 172.54 5.80333 173.081 6.298C173.632 6.79267 173.907 7.42267 173.907 8.188C173.907 8.73867 173.753 9.224 173.445 9.644C173.137 10.0547 172.741 10.3347 172.255 10.484V10.554C172.825 10.7127 173.273 11.0207 173.599 11.478C173.926 11.9353 174.089 12.5467 174.089 13.312C174.089 14.0773 173.805 14.726 173.235 15.258C172.675 15.79 171.896 16.056 170.897 16.056C169.908 16.056 169.096 15.804 168.461 15.3C167.827 14.796 167.477 14.082 167.411 13.158H168.615C168.662 13.69 168.881 14.1287 169.273 14.474C169.675 14.81 170.202 14.978 170.855 14.978C171.518 14.978 172.022 14.8053 172.367 14.46C172.722 14.1053 172.899 13.6527 172.899 13.102C172.899 12.3647 172.666 11.842 172.199 11.534C171.733 11.226 171.019 11.072 170.057 11.072H169.721V10.008H170.071C171.826 9.98933 172.703 9.42467 172.703 8.314C172.703 7.80067 172.535 7.39467 172.199 7.096C171.873 6.79733 171.411 6.648 170.813 6.648C170.216 6.648 169.745 6.788 169.399 7.068C169.054 7.33867 168.844 7.70267 168.769 8.16H167.537ZM176.915 6.746C177.177 6.44733 177.513 6.20933 177.923 6.032C178.343 5.85467 178.861 5.766 179.477 5.766C180.103 5.766 180.649 5.89667 181.115 6.158C181.591 6.41 181.955 6.77867 182.207 7.264C182.665 8.16 182.893 9.364 182.893 10.876C182.893 12.8173 182.548 14.194 181.857 15.006C181.288 15.6593 180.462 15.986 179.379 15.986C177.391 15.986 176.248 14.824 175.949 12.5C175.893 12.0147 175.865 11.4733 175.865 10.876C175.865 10.2693 175.893 9.728 175.949 9.252C176.015 8.76667 176.127 8.3 176.285 7.852C176.453 7.404 176.663 7.03533 176.915 6.746ZM181.283 8.146C181.143 7.73533 180.91 7.42733 180.583 7.222C180.266 7.00733 179.888 6.9 179.449 6.9C179.011 6.9 178.647 6.97467 178.357 7.124C178.077 7.27333 177.858 7.46467 177.699 7.698C177.541 7.93133 177.415 8.23467 177.321 8.608C177.228 8.972 177.167 9.32667 177.139 9.672C177.121 10.008 177.111 10.4093 177.111 10.876C177.111 11.3427 177.121 11.7487 177.139 12.094C177.167 12.43 177.228 12.7847 177.321 13.158C177.415 13.522 177.541 13.8207 177.699 14.054C177.858 14.2873 178.077 14.4787 178.357 14.628C178.647 14.7773 178.987 14.852 179.379 14.852C179.771 14.852 180.107 14.7773 180.387 14.628C180.677 14.4787 180.901 14.2873 181.059 14.054C181.227 13.8207 181.353 13.5173 181.437 13.144C181.587 12.5467 181.661 11.87 181.661 11.114C181.661 10.358 181.633 9.77467 181.577 9.364C181.531 8.95333 181.433 8.54733 181.283 8.146ZM190.363 8.314V9.56C190.886 8.64533 191.721 8.188 192.869 8.188C193.457 8.188 193.989 8.33267 194.465 8.622C194.941 8.902 195.3 9.31267 195.543 9.854C195.823 9.33133 196.201 8.92533 196.677 8.636C197.162 8.33733 197.713 8.188 198.329 8.188C199.197 8.188 199.916 8.47267 200.485 9.042C201.054 9.602 201.339 10.4047 201.339 11.45V16H200.079V11.66C200.079 10.8853 199.888 10.2973 199.505 9.896C199.132 9.49467 198.618 9.294 197.965 9.294C197.312 9.294 196.794 9.49467 196.411 9.896C196.038 10.2973 195.851 10.8853 195.851 11.66V16H194.591V11.66C194.591 10.8853 194.404 10.2973 194.031 9.896C193.658 9.49467 193.14 9.294 192.477 9.294C191.824 9.294 191.306 9.49467 190.923 9.896C190.55 10.2973 190.363 10.8853 190.363 11.66V16H189.089V8.314H190.363ZM204.623 6.83C204.455 6.998 204.249 7.082 204.007 7.082C203.764 7.082 203.559 6.998 203.391 6.83C203.232 6.662 203.153 6.45667 203.153 6.214C203.153 5.97133 203.237 5.766 203.405 5.598C203.573 5.43 203.773 5.346 204.007 5.346C204.249 5.346 204.455 5.43 204.623 5.598C204.791 5.766 204.875 5.97133 204.875 6.214C204.875 6.45667 204.791 6.662 204.623 6.83ZM203.363 16V8.314H204.637V16H203.363ZM208.013 8.314V9.56C208.536 8.64533 209.371 8.188 210.519 8.188C211.369 8.188 212.078 8.47267 212.647 9.042C213.217 9.602 213.501 10.4047 213.501 11.45V16H212.241V11.66C212.241 10.8853 212.055 10.2973 211.681 9.896C211.308 9.49467 210.79 9.294 210.127 9.294C209.474 9.294 208.956 9.49467 208.573 9.896C208.2 10.2973 208.013 10.8853 208.013 11.66V16H206.739V8.314H208.013Z" fill="#241415"/>
</svg>
