<svg width="20" height="19" viewBox="0 0 20 19" fill="none" xmlns="http://www.w3.org/2000/svg">
<path fill-rule="evenodd" clip-rule="evenodd" d="M9.98562 0C4.83616 0 0.693359 4.11672 0.693359 9.23377C0.693359 13.312 3.36488 16.7747 7.04307 18.0058C7.50768 18.0828 7.66256 17.8135 7.66256 17.5442C7.66256 17.3133 7.66256 16.7362 7.66256 15.9667C5.06847 16.5438 4.52642 14.7356 4.52642 14.7356C4.10052 13.6583 3.48104 13.389 3.48104 13.389C2.62925 12.8119 3.55847 12.8119 3.55847 12.8119C4.4877 12.8888 4.99103 13.7737 4.99103 13.7737C5.8041 15.1972 7.15923 14.774 7.70127 14.5432C7.77871 13.9276 8.01102 13.5429 8.28204 13.312C6.23 13.0812 4.0618 12.2732 4.0618 8.7336C4.0618 7.73328 4.41026 6.88685 5.02975 6.27127C4.95231 6.04042 4.60385 5.11704 5.10718 3.80893C5.10718 3.80893 5.88154 3.57808 7.66256 4.77078C8.39819 4.57841 9.21127 4.46299 9.98562 4.46299C10.76 4.46299 11.573 4.57841 12.3087 4.77078C14.0897 3.57808 14.8641 3.80893 14.8641 3.80893C15.3674 5.07857 15.0576 6.00195 14.9415 6.27127C15.5223 6.92532 15.9094 7.73328 15.9094 8.7336C15.9094 12.2732 13.7412 13.0427 11.6505 13.2735C11.9989 13.5429 12.27 14.12 12.27 14.9664C12.27 16.1976 12.27 17.1979 12.27 17.5057C12.27 17.7365 12.4248 18.0443 12.9282 17.9674C16.6064 16.7747 19.2779 13.312 19.2779 9.23377C19.2779 4.11672 15.1351 0 9.98562 0Z" fill="#241415"/>
</svg>
