<svg width="246" height="70" viewBox="0 0 246 70" fill="none" xmlns="http://www.w3.org/2000/svg">
<rect width="246" height="70" rx="10" fill="white"/>
<path fill-rule="evenodd" clip-rule="evenodd" d="M16.8851 10.7667C16.3231 11.3708 16 12.3006 16 13.5087V56.483C16 57.6912 16.3231 58.6209 16.9061 59.204L17.0585 59.3327L41.1379 35.2533V34.7122L17.0375 10.638L16.8851 10.7667Z" fill="url(#paint0_linear_0_416)"/>
<path fill-rule="evenodd" clip-rule="evenodd" d="M49.1487 43.3113L41.117 35.2769V34.7148L49.1513 26.6805L49.3247 26.7882L58.8272 32.1882C61.5483 33.722 61.5483 36.2487 58.8272 37.8036L49.3247 43.2036C49.3221 43.2036 49.1487 43.3113 49.1487 43.3113Z" fill="url(#paint1_linear_0_416)"/>
<path fill-rule="evenodd" clip-rule="evenodd" d="M49.3219 43.2036L41.1168 34.9958L16.885 59.2276C17.7701 60.1784 19.2593 60.2861 20.9245 59.3563L49.3219 43.2036Z" fill="url(#paint2_linear_0_416)"/>
<path fill-rule="evenodd" clip-rule="evenodd" d="M49.3219 26.7908L20.9245 10.659C19.262 9.70823 17.7701 9.83693 16.885 10.7877L41.1142 34.9959L49.3219 26.7908Z" fill="url(#paint3_linear_0_416)"/>
<path opacity="0.2" fill-rule="evenodd" clip-rule="evenodd" d="M49.1487 43.0302L20.9457 59.0543C19.3698 59.9604 17.9646 59.8974 17.0585 59.0753L16.9062 59.2276L17.0585 59.3563C17.9646 60.1758 19.3698 60.2415 20.9457 59.3353L49.343 43.2036L49.1487 43.0302Z" fill="black"/>
<path opacity="0.12" fill-rule="evenodd" clip-rule="evenodd" d="M58.8246 37.5225L49.1277 43.0302L49.301 43.2036L58.8036 37.8035C60.1641 37.0261 60.8338 36.0123 60.8338 34.9958C60.7471 35.9256 60.0564 36.8107 58.8246 37.5225Z" fill="black"/>
<path opacity="0.25" fill-rule="evenodd" clip-rule="evenodd" d="M20.9246 10.9401L58.8246 32.4718C60.0564 33.1626 60.7471 34.0687 60.8548 34.9985C60.8548 33.9847 60.1851 32.9682 58.8246 32.1908L20.9246 10.659C18.2036 9.10416 16 10.399 16 13.5087V13.7898C16 10.68 18.2036 9.4062 20.9246 10.9401Z" fill="white"/>
<path fill-rule="evenodd" clip-rule="evenodd" d="M70.1052 33.6328C70.1052 26.7488 75.8913 21.1439 82.7753 21.1439C86.581 21.1439 89.2889 22.6384 91.3323 24.5846L88.9265 26.9904C87.4661 25.6194 85.4858 24.5557 82.7726 24.5557C77.7456 24.5557 73.8164 28.6031 73.8164 33.6301C73.8164 38.6572 77.7456 42.7098 82.77 42.7098C86.0295 42.7098 87.8837 41.4019 89.0735 40.2094C90.0479 39.235 90.6862 37.8351 90.9331 35.9152H82.7753V32.5113H94.2582C94.379 33.1206 94.442 33.8508 94.442 34.6413C94.442 37.1969 93.7408 40.367 91.4846 42.6232C89.2889 44.9082 86.4891 46.1269 82.7726 46.1269C75.886 46.1269 70.0999 40.5273 70.0999 33.638L70.1052 33.6328ZM103.724 30.0398C99.2774 30.0398 95.6476 33.4227 95.6476 38.0794C95.6476 42.7125 99.2747 46.119 103.724 46.119C108.173 46.119 111.795 42.7072 111.795 38.0768C111.795 33.42 108.171 30.0371 103.724 30.0398ZM103.724 42.9567C101.289 42.9567 99.1854 40.9475 99.1854 38.082C99.1854 35.1876 101.287 33.2073 103.724 33.2073C106.159 33.2073 108.26 35.185 108.26 38.082C108.26 40.9449 106.161 42.9567 103.724 42.9567ZM121.334 30.0398C116.888 30.0398 113.263 33.4227 113.263 38.0794C113.263 42.7125 116.888 46.119 121.334 46.119C125.781 46.119 129.406 42.7072 129.406 38.0768C129.406 33.42 125.784 30.0371 121.334 30.0398ZM121.334 42.9567C118.9 42.9567 116.796 40.9475 116.796 38.082C116.796 35.1876 118.897 33.2073 121.334 33.2073C123.769 33.2073 125.873 35.185 125.873 38.082C125.873 40.9449 123.769 42.9567 121.334 42.9567ZM142.948 30.5283V31.8363H142.827C142.036 30.8881 140.513 30.0371 138.596 30.0371C134.574 30.0371 130.884 33.5724 130.884 38.1135C130.884 42.6179 134.572 46.1243 138.596 46.1243C140.513 46.1243 142.036 45.2733 142.827 44.2989H142.948V45.4545C142.948 48.5301 141.303 50.1769 138.653 50.1769C136.489 50.1769 135.15 48.622 134.601 47.3167L131.522 48.5958C132.405 50.7258 134.753 53.347 138.651 53.347C142.79 53.347 146.294 50.9071 146.294 44.9686V30.5257L142.948 30.5283ZM138.898 42.9567C136.463 42.9567 134.417 40.9133 134.417 38.1135C134.417 35.2822 136.46 33.2099 138.898 33.2099C141.303 33.2099 143.192 35.2796 143.192 38.1135C143.195 40.9133 141.306 42.9567 138.898 42.9567ZM148.734 21.9975H152.269V45.6357H148.734V21.9975ZM161.958 42.9567C160.162 42.9567 158.88 42.132 158.063 40.522L168.816 36.0701L168.445 35.1561C167.778 33.3622 165.735 30.0398 161.561 30.0398C157.419 30.0398 153.976 33.2992 153.976 38.082C153.976 42.5864 157.388 46.1216 161.958 46.1216C165.646 46.1216 167.778 43.8707 168.661 42.5575L165.919 40.7321C165.002 42.0742 163.752 42.9594 161.958 42.9567ZM161.682 33.1469C163.082 33.1469 164.269 33.8481 164.666 34.8515L157.475 37.8377C157.385 34.7306 159.883 33.1469 161.682 33.1469Z" fill="#808285"/>
<path fill-rule="evenodd" clip-rule="evenodd" d="M184.328 21.9974H175.876V45.6356H179.403V36.682H184.331C188.241 36.682 192.087 33.8507 192.087 29.3384C192.087 24.834 188.244 22.0001 184.336 22.0001L184.328 21.9974ZM184.42 33.3911H179.403V25.2858H184.42C187.057 25.2858 188.559 27.4736 188.559 29.3384C188.559 31.1717 187.057 33.3911 184.42 33.3911ZM197.557 45.6356V21.9974H194.03V45.6356H197.557ZM213.403 45.5936V36.5323C213.403 32.3352 210.267 29.995 206.22 29.995C203.669 29.995 201.024 31.1218 199.929 33.6143L203.06 34.9197C203.73 33.6143 204.975 33.1862 206.285 33.1862C208.108 33.1862 209.962 34.2814 209.991 36.2303V36.4745C209.353 36.1094 207.987 35.5605 206.311 35.5605C202.936 35.5605 199.501 37.4148 199.501 40.8817C199.501 44.0466 202.269 46.0821 205.371 46.0821C207.746 46.0821 209.051 45.0184 209.87 43.7735H209.991V45.5989H213.4L213.403 45.5936ZM205.799 42.9514C204.644 42.9514 203.031 42.3736 203.031 40.9474C203.031 39.122 205.04 38.4181 206.774 38.4181C208.326 38.4181 209.054 38.7517 209.999 39.2087C209.729 41.3309 207.935 42.9251 205.799 42.9514ZM225.808 30.5124L221.763 40.7583H221.642L217.445 30.5124H213.645L219.938 44.8372L216.347 52.8033H220.027L229.726 30.5124H225.808Z" fill="#808285"/>
<defs>
<linearGradient id="paint0_linear_0_416" x1="38.9757" y1="13.0468" x2="0.404568" y2="23.3241" gradientUnits="userSpaceOnUse">
<stop stop-color="#00A0FF"/>
<stop offset="0.007" stop-color="#00A1FF"/>
<stop offset="0.26" stop-color="#00BEFF"/>
<stop offset="0.512" stop-color="#00D2FF"/>
<stop offset="0.76" stop-color="#00DFFF"/>
<stop offset="1" stop-color="#00E3FF"/>
</linearGradient>
<linearGradient id="paint1_linear_0_416" x1="62.368" y1="34.9971" x2="15.3387" y2="34.9971" gradientUnits="userSpaceOnUse">
<stop stop-color="#FFE000"/>
<stop offset="0.409" stop-color="#FFBD00"/>
<stop offset="0.775" stop-color="#FFA500"/>
<stop offset="1" stop-color="#FF9C00"/>
</linearGradient>
<linearGradient id="paint2_linear_0_416" x1="44.8602" y1="39.4609" x2="13.8952" y2="91.5771" gradientUnits="userSpaceOnUse">
<stop stop-color="#FF3A44"/>
<stop offset="1" stop-color="#C31162"/>
</linearGradient>
<linearGradient id="paint3_linear_0_416" x1="10.7853" y1="-3.52863" x2="24.5997" y2="19.7473" gradientUnits="userSpaceOnUse">
<stop stop-color="#32A071"/>
<stop offset="0.069" stop-color="#2DA771"/>
<stop offset="0.476" stop-color="#15CF74"/>
<stop offset="0.801" stop-color="#06E775"/>
<stop offset="1" stop-color="#00F076"/>
</linearGradient>
</defs>
</svg>
