<svg width="191" height="50" viewBox="0 0 191 50" fill="none" xmlns="http://www.w3.org/2000/svg">
<rect opacity="0.1" width="191" height="50" rx="25" fill="#F54749"/>
<path opacity="0.8" d="M21.476 32V19.508H23.168V32H21.476ZM22.628 26.51V24.962H29.144V26.51H22.628ZM22.628 21.056V19.508H29.45V21.056H22.628ZM34.6678 32.18C33.8878 32.18 33.1798 31.988 32.5438 31.604C31.9078 31.208 31.4038 30.674 31.0317 30.002C30.6718 29.33 30.4918 28.574 30.4918 27.734C30.4918 26.894 30.6718 26.138 31.0317 25.466C31.4038 24.794 31.9018 24.26 32.5258 23.864C33.1618 23.468 33.8758 23.27 34.6678 23.27C35.3158 23.27 35.8918 23.408 36.3958 23.684C36.9118 23.948 37.3258 24.32 37.6378 24.8C37.9498 25.268 38.1238 25.814 38.1598 26.438V29.012C38.1238 29.624 37.9498 30.17 37.6378 30.65C37.3378 31.13 36.9298 31.508 36.4138 31.784C35.9098 32.048 35.3278 32.18 34.6678 32.18ZM34.9378 30.65C35.7418 30.65 36.3898 30.38 36.8818 29.84C37.3738 29.288 37.6198 28.586 37.6198 27.734C37.6198 27.146 37.5058 26.636 37.2778 26.204C37.0618 25.76 36.7498 25.418 36.3418 25.178C35.9338 24.926 35.4598 24.8 34.9198 24.8C34.3798 24.8 33.8998 24.926 33.4798 25.178C33.0718 25.43 32.7478 25.778 32.5078 26.222C32.2798 26.654 32.1658 27.152 32.1658 27.716C32.1658 28.292 32.2798 28.802 32.5078 29.246C32.7478 29.678 33.0778 30.02 33.4978 30.272C33.9178 30.524 34.3978 30.65 34.9378 30.65ZM37.5118 32V29.696L37.8178 27.608L37.5118 25.538V23.45H39.1498V32H37.5118ZM44.2263 32.18C43.7463 32.18 43.2903 32.12 42.8583 32C42.4383 31.868 42.0483 31.688 41.6883 31.46C41.3283 31.22 41.0163 30.938 40.7523 30.614L41.7963 29.57C42.1083 29.954 42.4683 30.242 42.8763 30.434C43.2843 30.614 43.7403 30.704 44.2443 30.704C44.7483 30.704 45.1383 30.62 45.4143 30.452C45.6903 30.272 45.8283 30.026 45.8283 29.714C45.8283 29.402 45.7143 29.162 45.4863 28.994C45.2703 28.814 44.9883 28.67 44.6403 28.562C44.2923 28.442 43.9203 28.328 43.5243 28.22C43.1403 28.1 42.7743 27.95 42.4263 27.77C42.0783 27.59 41.7903 27.344 41.5623 27.032C41.3463 26.72 41.2383 26.306 41.2383 25.79C41.2383 25.274 41.3643 24.83 41.6163 24.458C41.8683 24.074 42.2163 23.78 42.6603 23.576C43.1163 23.372 43.6623 23.27 44.2983 23.27C44.9703 23.27 45.5643 23.39 46.0803 23.63C46.6083 23.858 47.0403 24.206 47.3763 24.674L46.3323 25.718C46.0923 25.406 45.7923 25.166 45.4323 24.998C45.0843 24.83 44.6883 24.746 44.2443 24.746C43.7763 24.746 43.4163 24.83 43.1643 24.998C42.9243 25.154 42.8043 25.376 42.8043 25.664C42.8043 25.952 42.9123 26.174 43.1283 26.33C43.3443 26.486 43.6263 26.618 43.9743 26.726C44.3343 26.834 44.7063 26.948 45.0903 27.068C45.4743 27.176 45.8403 27.326 46.1883 27.518C46.5363 27.71 46.8183 27.968 47.0343 28.292C47.2623 28.616 47.3763 29.042 47.3763 29.57C47.3763 30.374 47.0883 31.01 46.5123 31.478C45.9483 31.946 45.1863 32.18 44.2263 32.18ZM50.504 32V19.868H52.124V32H50.504ZM48.398 24.926V23.45H54.23V24.926H48.398ZM60.965 32V30.452H64.439C65.363 30.452 66.173 30.254 66.869 29.858C67.565 29.45 68.105 28.892 68.489 28.184C68.885 27.476 69.083 26.66 69.083 25.736C69.083 24.824 68.885 24.014 68.489 23.306C68.093 22.598 67.547 22.046 66.851 21.65C66.155 21.254 65.351 21.056 64.439 21.056H60.983V19.508H64.475C65.387 19.508 66.227 19.664 66.995 19.976C67.775 20.288 68.447 20.726 69.011 21.29C69.587 21.854 70.031 22.514 70.343 23.27C70.667 24.026 70.829 24.854 70.829 25.754C70.829 26.642 70.667 27.47 70.343 28.238C70.031 28.994 69.593 29.654 69.029 30.218C68.465 30.782 67.793 31.22 67.013 31.532C66.245 31.844 65.411 32 64.511 32H60.965ZM59.849 32V19.508H61.541V32H59.849ZM76.8453 32.18C75.9933 32.18 75.2253 31.988 74.5413 31.604C73.8573 31.208 73.3173 30.674 72.9213 30.002C72.5253 29.33 72.3273 28.568 72.3273 27.716C72.3273 26.876 72.5193 26.12 72.9033 25.448C73.2993 24.776 73.8273 24.248 74.4873 23.864C75.1593 23.468 75.9093 23.27 76.7373 23.27C77.5293 23.27 78.2253 23.45 78.8253 23.81C79.4373 24.17 79.9113 24.668 80.2473 25.304C80.5953 25.94 80.7693 26.66 80.7693 27.464C80.7693 27.584 80.7633 27.716 80.7513 27.86C80.7393 27.992 80.7153 28.148 80.6793 28.328H73.4613V26.978H79.8153L79.2213 27.5C79.2213 26.924 79.1193 26.438 78.9153 26.042C78.7113 25.634 78.4233 25.322 78.0513 25.106C77.6793 24.878 77.2293 24.764 76.7013 24.764C76.1493 24.764 75.6633 24.884 75.2433 25.124C74.8233 25.364 74.4993 25.7 74.2713 26.132C74.0433 26.564 73.9293 27.074 73.9293 27.662C73.9293 28.262 74.0493 28.79 74.2893 29.246C74.5293 29.69 74.8713 30.038 75.3153 30.29C75.7593 30.53 76.2693 30.65 76.8453 30.65C77.3253 30.65 77.7633 30.566 78.1593 30.398C78.5673 30.23 78.9153 29.978 79.2033 29.642L80.2473 30.704C79.8393 31.184 79.3353 31.55 78.7353 31.802C78.1473 32.054 77.5173 32.18 76.8453 32.18ZM82.5357 32V19.148H84.1557V32H82.5357ZM86.5439 32V23.45H88.1639V32H86.5439ZM87.3539 21.74C87.0539 21.74 86.8079 21.644 86.6159 21.452C86.4239 21.248 86.3279 20.996 86.3279 20.696C86.3279 20.408 86.4239 20.168 86.6159 19.976C86.8079 19.772 87.0539 19.67 87.3539 19.67C87.6539 19.67 87.8999 19.772 88.0919 19.976C88.2839 20.168 88.3799 20.408 88.3799 20.696C88.3799 20.996 88.2839 21.248 88.0919 21.452C87.8999 21.644 87.6539 21.74 87.3539 21.74ZM93.4853 32L89.5613 23.45H91.3613L94.5113 30.668H93.4673L96.6353 23.45H98.3633L94.4393 32H93.4853ZM103.371 32.18C102.519 32.18 101.751 31.988 101.067 31.604C100.383 31.208 99.8427 30.674 99.4467 30.002C99.0507 29.33 98.8527 28.568 98.8527 27.716C98.8527 26.876 99.0447 26.12 99.4287 25.448C99.8247 24.776 100.353 24.248 101.013 23.864C101.685 23.468 102.435 23.27 103.263 23.27C104.055 23.27 104.751 23.45 105.351 23.81C105.963 24.17 106.437 24.668 106.773 25.304C107.121 25.94 107.295 26.66 107.295 27.464C107.295 27.584 107.289 27.716 107.277 27.86C107.265 27.992 107.241 28.148 107.205 28.328H99.9867V26.978H106.341L105.747 27.5C105.747 26.924 105.645 26.438 105.441 26.042C105.237 25.634 104.949 25.322 104.577 25.106C104.205 24.878 103.755 24.764 103.227 24.764C102.675 24.764 102.189 24.884 101.769 25.124C101.349 25.364 101.025 25.7 100.797 26.132C100.569 26.564 100.455 27.074 100.455 27.662C100.455 28.262 100.575 28.79 100.815 29.246C101.055 29.69 101.397 30.038 101.841 30.29C102.285 30.53 102.795 30.65 103.371 30.65C103.851 30.65 104.289 30.566 104.685 30.398C105.093 30.23 105.441 29.978 105.729 29.642L106.773 30.704C106.365 31.184 105.861 31.55 105.261 31.802C104.673 32.054 104.043 32.18 103.371 32.18ZM109.061 32V23.45H110.681V32H109.061ZM110.681 27.122L110.069 26.852C110.069 25.76 110.321 24.89 110.825 24.242C111.329 23.594 112.055 23.27 113.003 23.27C113.435 23.27 113.825 23.348 114.173 23.504C114.521 23.648 114.845 23.894 115.145 24.242L114.083 25.34C113.903 25.148 113.705 25.01 113.489 24.926C113.273 24.842 113.021 24.8 112.733 24.8C112.133 24.8 111.641 24.992 111.257 25.376C110.873 25.76 110.681 26.342 110.681 27.122ZM118.935 32.072L115.227 23.45H117.027L119.781 30.2H119.205L122.103 23.45H123.903L119.907 32.072H118.935ZM116.487 35.582L119.007 30.416L119.907 32.072L118.287 35.582H116.487Z" fill="#F54749"/>
<path d="M161.088 33.8472C160.46 34.2991 159.705 34.5418 158.93 34.5408C158.412 34.5404 157.9 34.4337 157.425 34.2275L157.034 32.7273L156.289 29.8551L156.13 29.2385C156.192 29.1045 156.227 28.9595 156.232 28.812C156.234 28.6496 156.191 28.4898 156.109 28.3496C156.036 28.2173 155.931 28.1045 155.805 28.0205C155.68 27.9365 155.535 27.8837 155.385 27.8666C155.251 27.8563 155.071 27.8614 153.232 27.8614C152.414 27.8615 151.63 27.5377 151.05 26.9609C150.471 26.3842 150.143 25.6013 150.139 24.7836V23.7506L155.298 24.2953L156.531 24.4237L157.944 24.5727C158.471 24.6287 158.956 24.886 159.298 25.291C159.639 25.696 159.812 26.2173 159.778 26.7461L159.475 31.6429C159.457 31.9391 159.503 32.2358 159.61 32.5125C159.718 32.7892 159.884 33.0394 160.097 33.246C160.245 33.3931 160.417 33.5146 160.605 33.6057L161.088 33.8472Z" fill="#E0925B"/>
<path d="M144.79 33.2203L144.029 35.2499C143.717 35.2839 143.404 35.1954 143.156 35.0033H143.151L143.059 34.9259C142.946 34.8193 142.855 34.6912 142.793 34.5492C142.73 34.4071 142.696 34.2539 142.694 34.0987C142.694 34.0351 142.699 33.9716 142.709 33.9089C142.753 33.6475 142.885 33.4091 143.083 33.2333C143.281 33.0575 143.534 32.955 143.799 32.9428C143.965 32.9336 144.131 32.96 144.287 33.0202L144.467 33.0922L144.79 33.2203Z" fill="#FED673"/>
<path d="M151.059 38.3171C151.057 38.6041 151.016 38.8895 150.935 39.165C150.752 39.7643 150.38 40.2884 149.875 40.6589C149.369 41.0295 148.758 41.2266 148.131 41.2208C147.504 41.215 146.897 41.0067 146.398 40.6269C145.9 40.2471 145.537 39.7162 145.365 39.1136C145.288 38.8552 145.25 38.5867 145.252 38.3171C145.251 38.0547 145.288 37.7935 145.36 37.5412C145.533 36.9169 145.91 36.3685 146.431 35.9832C146.952 35.5979 147.587 35.3979 148.234 35.4151C148.882 35.4322 149.505 35.6655 150.005 36.0778C150.504 36.4901 150.852 37.0577 150.992 37.6902C151.035 37.8964 151.057 38.1064 151.059 38.3171Z" fill="#FED673"/>
<path d="M168.97 38.1376C168.971 38.4889 168.907 38.8373 168.781 39.1653C168.572 39.7165 168.201 40.1912 167.717 40.5262C167.232 40.8612 166.657 41.0407 166.068 41.0407C165.478 41.0407 164.903 40.8612 164.419 40.5262C163.934 40.1912 163.563 39.7165 163.355 39.1653C163.229 38.8373 163.164 38.4889 163.165 38.1376C163.163 37.9824 163.176 37.8275 163.206 37.6751C163.315 36.9944 163.663 36.3748 164.187 35.9274C164.712 35.4801 165.378 35.2344 166.068 35.2344C166.757 35.2344 167.424 35.4801 167.948 35.9274C168.473 36.3748 168.821 36.9944 168.93 37.6751C168.959 37.8275 168.973 37.9824 168.97 38.1376Z" fill="#FED673"/>
<path d="M151.752 38.1376C151.752 39.0915 151.373 40.0064 150.699 40.6809C150.024 41.3554 149.109 41.7343 148.155 41.7343C147.202 41.7343 146.287 41.3554 145.612 40.6809C144.938 40.0064 144.559 39.0915 144.559 38.1376C144.559 37.6032 144.847 37.4079 145.17 37.4645C145.239 37.474 145.304 37.5006 145.36 37.5418C145.444 37.5963 145.51 37.6738 145.55 37.7651C145.59 37.8563 145.603 37.9573 145.586 38.0557V38.1379C145.585 38.4764 145.65 38.8119 145.778 39.1251C145.906 39.4384 146.095 39.7232 146.334 39.9632C146.573 40.2032 146.857 40.3936 147.169 40.5236C147.482 40.6535 147.817 40.7204 148.156 40.7204C148.494 40.7204 148.829 40.6535 149.142 40.5236C149.454 40.3936 149.738 40.2032 149.977 39.9632C150.216 39.7232 150.405 39.4384 150.533 39.1251C150.661 38.8119 150.726 38.4764 150.725 38.1379C150.724 38.046 150.748 37.9557 150.796 37.8769C150.843 37.798 150.911 37.7336 150.992 37.6908C151.066 37.6455 151.152 37.6224 151.238 37.624C151.375 37.6244 151.505 37.6787 151.601 37.7749C151.697 37.8711 151.752 38.0015 151.752 38.1376Z" fill="#7C737D"/>
<path d="M169.664 38.1376C169.664 38.61 169.571 39.0777 169.39 39.514C169.21 39.9504 168.945 40.3469 168.611 40.6809C168.277 41.0149 167.88 41.2798 167.444 41.4606C167.007 41.6414 166.54 41.7344 166.067 41.7344C165.595 41.7344 165.127 41.6414 164.691 41.4606C164.254 41.2798 163.858 41.0149 163.524 40.6809C163.19 40.3469 162.925 39.9504 162.744 39.514C162.564 39.0777 162.471 38.61 162.471 38.1376C162.471 38.0015 162.525 37.871 162.621 37.7747C162.718 37.6785 162.848 37.6242 162.984 37.6238C163.061 37.625 163.136 37.6425 163.205 37.6752C163.293 37.7162 163.368 37.7816 163.419 37.8635C163.471 37.9455 163.499 38.0406 163.498 38.1376C163.499 38.4909 163.57 38.8404 163.709 39.1653C163.91 39.6236 164.24 40.0135 164.659 40.2872C165.078 40.561 165.567 40.7067 166.068 40.7067C166.568 40.7067 167.058 40.561 167.476 40.2872C167.895 40.0135 168.225 39.6236 168.426 39.1653C168.565 38.8404 168.637 38.4909 168.637 38.1376C168.637 38.0406 168.664 37.9455 168.716 37.8635C168.768 37.7816 168.842 37.7162 168.93 37.6752C168.999 37.6425 169.074 37.625 169.151 37.6238C169.287 37.6243 169.417 37.6787 169.513 37.7749C169.609 37.8712 169.664 38.0016 169.664 38.1376Z" fill="#7C737D"/>
<path d="M150.935 39.1653C150.752 39.7647 150.38 40.2888 149.875 40.6593C149.369 41.0298 148.758 41.2269 148.131 41.2211C147.504 41.2154 146.896 41.007 146.398 40.6272C145.9 40.2474 145.537 39.7165 145.365 39.1139C145.507 39.145 145.652 39.1605 145.797 39.1601C145.835 39.1644 145.872 39.1662 145.91 39.1653H150.935Z" fill="#FED673"/>
<path d="M168.78 39.1653C168.572 39.7165 168.201 40.1912 167.716 40.5262C167.232 40.8613 166.656 41.0407 166.067 41.0407C165.478 41.0407 164.903 40.8613 164.418 40.5262C163.934 40.1912 163.562 39.7165 163.354 39.1653H168.78Z" fill="#FED673"/>
<path d="M151.603 39.1653C151.375 39.9312 150.897 40.5991 150.247 41.0637C149.597 41.5284 148.81 41.7633 148.012 41.7315C147.213 41.6997 146.448 41.4029 145.837 40.888C145.225 40.3731 144.803 39.6694 144.636 38.8878C144.867 38.9969 145.113 39.073 145.365 39.1139C145.507 39.1451 145.652 39.1606 145.797 39.1601C145.997 39.6192 146.326 40.01 146.745 40.2846C147.163 40.5593 147.653 40.7059 148.154 40.7064C148.654 40.707 149.144 40.5615 149.564 40.2877C149.983 40.014 150.313 39.6239 150.514 39.1653H151.603Z" fill="#7C737D"/>
<path d="M169.515 39.1653C169.294 39.9076 168.838 40.5586 168.217 41.0215C167.596 41.4844 166.842 41.7344 166.067 41.7344C165.293 41.7344 164.539 41.4844 163.917 41.0215C163.296 40.5586 162.841 39.9076 162.62 39.1653H163.709C163.909 39.6236 164.239 40.0134 164.658 40.2872C165.077 40.5609 165.567 40.7067 166.067 40.7067C166.567 40.7067 167.057 40.5609 167.476 40.2872C167.895 40.0134 168.225 39.6236 168.425 39.1653H169.515Z" fill="#7C737D"/>
<path d="M145.797 39.1601C145.652 39.1605 145.507 39.145 145.365 39.1139C145.113 39.073 144.867 38.9968 144.636 38.8877C144.584 38.6411 144.558 38.3896 144.558 38.1376C144.558 37.6032 144.846 37.4079 145.17 37.4645C145.239 37.474 145.304 37.5006 145.36 37.5418C145.444 37.5963 145.509 37.6738 145.55 37.7651C145.59 37.8563 145.602 37.9573 145.586 38.0557V38.1379C145.587 38.4894 145.658 38.8371 145.797 39.1601Z" fill="#6C646D"/>
<path d="M150.992 37.6906C150.91 37.7334 150.843 37.7978 150.795 37.8766C150.748 37.9555 150.724 38.0458 150.725 38.1376C150.724 38.4909 150.652 38.8404 150.514 39.1653H145.91C145.872 39.1662 145.835 39.1644 145.797 39.1601C145.658 38.8371 145.587 38.4892 145.586 38.1376V38.0554C145.602 37.9571 145.59 37.8561 145.55 37.7649C145.509 37.6736 145.444 37.596 145.36 37.5416C145.533 36.9173 145.91 36.3689 146.431 35.9836C146.952 35.5983 147.586 35.3983 148.234 35.4154C148.882 35.4326 149.505 35.6659 150.004 36.0781C150.504 36.4904 150.852 37.058 150.991 37.6906H150.992Z" fill="#FEC845"/>
<path d="M151.752 38.1376C151.753 38.4856 151.703 38.8318 151.603 39.1653H150.514C150.653 38.8404 150.724 38.4909 150.725 38.1376C150.724 38.0457 150.749 37.9554 150.796 37.8766C150.843 37.7977 150.911 37.7334 150.992 37.6905C151.066 37.6453 151.152 37.6221 151.239 37.6237C151.375 37.6242 151.505 37.6785 151.601 37.7748C151.698 37.8711 151.752 38.0015 151.752 38.1376Z" fill="#6C646D"/>
<path d="M163.709 39.1653H162.62C162.52 38.8318 162.47 38.4856 162.471 38.1376C162.471 38.0015 162.525 37.871 162.621 37.7747C162.718 37.6785 162.848 37.6242 162.984 37.6238C163.061 37.625 163.136 37.6425 163.205 37.6752C163.293 37.7162 163.368 37.7816 163.419 37.8635C163.471 37.9455 163.499 38.0406 163.498 38.1376C163.498 38.4909 163.57 38.8404 163.709 39.1653Z" fill="#6C646D"/>
<path d="M168.929 37.6751C168.841 37.7162 168.767 37.7815 168.715 37.8635C168.663 37.9454 168.636 38.0406 168.636 38.1376C168.636 38.4908 168.564 38.8404 168.426 39.1653H163.709C163.57 38.8404 163.498 38.4908 163.498 38.1376C163.498 38.0406 163.471 37.9454 163.419 37.8635C163.367 37.7815 163.293 37.7162 163.205 37.6751C163.314 36.9944 163.661 36.3748 164.186 35.9274C164.711 35.4801 165.377 35.2344 166.067 35.2344C166.756 35.2344 167.423 35.4801 167.947 35.9274C168.472 36.3748 168.82 36.9944 168.929 37.6751H168.929Z" fill="#FEC845"/>
<path d="M169.664 38.1376C169.665 38.4856 169.614 38.8318 169.515 39.1653H168.426C168.565 38.8404 168.636 38.4909 168.637 38.1376C168.636 38.0406 168.664 37.9455 168.715 37.8635C168.767 37.7816 168.842 37.7162 168.93 37.6752C168.999 37.6425 169.074 37.625 169.15 37.6238C169.287 37.6243 169.417 37.6786 169.513 37.7748C169.609 37.8711 169.664 38.0015 169.664 38.1376Z" fill="#6C646D"/>
<path d="M161.088 33.8472C160.46 34.2991 159.705 34.5417 158.93 34.5408C158.412 34.5404 157.9 34.4337 157.425 34.2274L157.034 32.7273C157.428 33.1212 157.934 33.3828 158.483 33.4758C159.031 33.5688 159.596 33.4886 160.097 33.2463C160.245 33.3934 160.417 33.5149 160.605 33.6059L161.088 33.8472Z" fill="#DB7A35"/>
<path d="M169.664 38.1376H145.91C145.58 38.1376 145.255 38.0581 144.962 37.9058C144.67 37.7535 144.418 37.5329 144.229 37.2627C144.04 36.9925 143.918 36.6806 143.875 36.3535C143.832 36.0264 143.868 35.6938 143.981 35.3837L144.029 35.2501L144.79 33.2204L145.545 31.2011L145.92 30.1941C146.48 30.6784 147.195 30.9448 147.935 30.9442H153.371C154.043 30.945 154.696 30.7247 155.231 30.3174C155.205 30.7109 155.228 31.106 155.298 31.4941C155.832 34.3149 158.961 35.3683 161.088 33.8474C161.575 33.5066 161.972 33.0536 162.245 32.5267C162.519 31.9998 162.662 31.4146 162.661 30.8208C162.661 30.4457 162.029 24.1668 161.849 22.2092C161.829 21.9625 161.813 21.7878 161.808 21.6953H164.983L165.997 33.7009C166.013 33.9187 166.1 34.1252 166.244 34.2897C166.387 34.4542 166.58 34.568 166.794 34.614C167.605 34.7809 168.333 35.2227 168.856 35.8647C169.379 36.5067 169.665 37.3096 169.664 38.1376Z" fill="#F16069"/>
<path d="M164.983 21.6953H161.808C161.813 21.7878 161.828 21.9625 161.849 22.2092C161.875 22.4763 161.905 22.8309 161.946 23.2368H162.471C162.63 23.2361 162.788 23.2172 162.943 23.1805C163.181 23.5157 163.495 23.7891 163.86 23.9778C164.224 24.1664 164.629 24.2648 165.04 24.2647H165.199L164.983 21.6953Z" fill="#EF444E"/>
<path d="M163.498 21.1814C163.498 21.362 163.45 21.5392 163.359 21.6953C163.315 21.7731 163.26 21.8442 163.195 21.9062C163.101 22.0028 162.988 22.0794 162.864 22.1315C162.74 22.1836 162.606 22.2101 162.471 22.2094H156.649C156.475 22.6014 156.27 22.9793 156.038 23.3398C155.821 23.6807 155.573 24.0007 155.298 24.2955L150.139 23.7509C150.141 23.4073 150.178 23.0649 150.247 22.7284C150.797 20.1232 153.273 17.698 154.871 16.3672C155.179 16.1052 155.452 15.8891 155.678 15.7198C156.136 16.1714 156.702 16.4986 157.322 16.6704C157.616 16.9816 157.807 17.3767 157.867 17.8008C158.005 18.6743 157.677 19.63 157.338 20.1541H162.47C162.743 20.1548 163.004 20.2633 163.196 20.4558C163.389 20.6483 163.497 20.9092 163.498 21.1814Z" fill="#FED673"/>
<path d="M156.038 23.3396C155.821 23.6805 155.573 24.0004 155.298 24.2953L150.139 23.7506C150.141 23.4071 150.178 23.0647 150.247 22.7281L156.038 23.3396Z" fill="#FEC845"/>
<path d="M147.899 13.7311C147.899 10.8933 145.368 8.33594 142.247 8.33594C139.125 8.33594 136.595 10.8933 136.595 13.7311C136.595 16.5689 139.125 19.1262 142.247 19.1262C142.409 19.1262 142.569 19.1152 142.728 19.1017L144.816 20.6677V18.5061C146.645 17.5798 147.899 15.7269 147.899 13.7311Z" fill="#F16069"/>
<path d="M143.757 18.0729L144.816 18.8693V20.6677L142.73 19.1008C142.57 19.1162 142.411 19.1265 142.247 19.1265C139.123 19.1265 136.595 16.5676 136.595 13.7314C136.595 12.1025 137.427 10.5662 138.732 9.55396C138.024 10.452 137.634 11.5597 137.623 12.7034C137.623 15.5397 140.151 18.0985 143.275 18.0985C143.439 18.0985 143.598 18.0883 143.757 18.0729Z" fill="#EF353F"/>
<path d="M142.247 10.905C144.038 10.905 145.33 12.1988 145.33 13.988V15.5295C145.33 15.597 145.316 15.6639 145.29 15.7263C145.264 15.7887 145.226 15.8453 145.179 15.8931C145.131 15.9408 145.074 15.9786 145.011 16.0044C144.949 16.0301 144.882 16.0433 144.815 16.0433H139.679C139.611 16.0433 139.544 16.0301 139.482 16.0043C139.419 15.9786 139.363 15.9407 139.315 15.893C139.267 15.8453 139.229 15.7887 139.203 15.7263C139.177 15.6639 139.164 15.597 139.164 15.5295V13.988C139.164 12.1988 140.456 10.905 142.247 10.905Z" fill="#E69B6C"/>
<path d="M145.363 15.0156C144.855 15.0156 144.582 14.8357 144.363 14.6912C144.19 14.577 144.075 14.5017 143.804 14.5017C143.532 14.5017 143.418 14.577 143.244 14.6912C143.025 14.8357 142.752 15.0156 142.244 15.0156C141.736 15.0156 141.464 14.8354 141.244 14.6909C141.072 14.577 140.958 14.5017 140.687 14.5017C140.416 14.5017 140.302 14.577 140.129 14.6909C139.91 14.8354 139.637 15.0156 139.13 15.0156C138.884 15.0156 138.685 14.7855 138.685 14.5017C138.685 14.218 138.884 13.988 139.13 13.988C139.401 13.988 139.515 13.9127 139.687 13.7988C139.906 13.6543 140.18 13.4741 140.687 13.4741C141.194 13.4741 141.467 13.6543 141.686 13.7988C141.859 13.9127 141.973 13.988 142.244 13.988C142.515 13.988 142.63 13.9127 142.803 13.7985C143.023 13.654 143.295 13.4741 143.804 13.4741C144.312 13.4741 144.585 13.654 144.804 13.7985C144.977 13.9127 145.091 13.988 145.363 13.988C145.609 13.988 145.808 14.218 145.808 14.5017C145.808 14.7854 145.609 15.0156 145.363 15.0156Z" fill="#85CCAB"/>
<path d="M142.247 10.905C144.038 10.905 145.33 12.1988 145.33 13.988V15.5295C145.33 15.597 145.316 15.6639 145.29 15.7263C145.264 15.7887 145.226 15.8453 145.179 15.8931C145.131 15.9408 145.074 15.9786 145.011 16.0044C144.949 16.0301 144.882 16.0433 144.815 16.0433H139.679C139.611 16.0433 139.544 16.0301 139.482 16.0043C139.419 15.9786 139.363 15.9407 139.315 15.893C139.267 15.8453 139.229 15.7887 139.203 15.7263C139.177 15.6639 139.164 15.597 139.164 15.5295V13.988C139.164 12.1988 140.456 10.905 142.247 10.905Z" fill="#E69B6C"/>
<path d="M145.33 15.5295C145.329 15.6657 145.275 15.7961 145.179 15.8924C145.082 15.9887 144.952 16.0429 144.816 16.0433H139.678C139.541 16.0429 139.411 15.9887 139.315 15.8924C139.218 15.7961 139.164 15.6657 139.164 15.5295V13.9881C139.164 12.9552 139.595 12.0817 140.31 11.5371C139.909 12.0509 139.678 12.7189 139.678 13.4742C139.679 13.5792 139.687 13.684 139.704 13.7877C139.753 14.125 139.89 14.4436 140.099 14.7125C140.155 14.7875 140.217 14.858 140.284 14.9234C140.473 15.1157 140.699 15.2683 140.948 15.3724C141.196 15.4765 141.463 15.53 141.733 15.5297L145.33 15.5295Z" fill="#E28044"/>
<path d="M145.363 15.0156C144.855 15.0156 144.582 14.8357 144.363 14.6912C144.19 14.577 144.075 14.5017 143.804 14.5017C143.532 14.5017 143.418 14.577 143.244 14.6912C143.025 14.8357 142.752 15.0156 142.244 15.0156C141.736 15.0156 141.464 14.8354 141.244 14.6909C141.072 14.577 140.958 14.5017 140.687 14.5017C140.416 14.5017 140.302 14.577 140.129 14.6909C139.91 14.8354 139.637 15.0156 139.13 15.0156C138.884 15.0156 138.685 14.7855 138.685 14.5017C138.685 14.218 138.884 13.988 139.13 13.988C139.401 13.988 139.515 13.9127 139.687 13.7988C139.906 13.6543 140.18 13.4741 140.687 13.4741C141.194 13.4741 141.467 13.6543 141.686 13.7988C141.859 13.9127 141.973 13.988 142.244 13.988C142.515 13.988 142.63 13.9127 142.803 13.7985C143.023 13.654 143.295 13.4741 143.804 13.4741C144.312 13.4741 144.585 13.654 144.804 13.7985C144.977 13.9127 145.091 13.988 145.363 13.988C145.609 13.988 145.808 14.218 145.808 14.5017C145.808 14.7854 145.609 15.0156 145.363 15.0156Z" fill="#85CCAB"/>
<path d="M140.099 14.7124C139.825 14.906 139.499 15.0118 139.164 15.0156H139.128C138.886 15.0156 138.686 14.7843 138.686 14.5017C138.686 14.2191 138.886 13.988 139.128 13.988H139.164C139.41 13.9827 139.523 13.9057 139.688 13.7981C139.693 13.793 139.698 13.793 139.703 13.7878C139.753 14.1251 139.889 14.4436 140.099 14.7124Z" fill="#63C397"/>
<path d="M155.298 31.4939C154.705 31.811 154.043 31.9754 153.371 31.9721H147.935C147.078 31.9679 146.243 31.6987 145.545 31.2013L145.92 30.1942C146.48 30.6786 147.195 30.9449 147.935 30.9444H153.371C154.043 30.9452 154.696 30.7249 155.231 30.3175C155.205 30.7109 155.228 31.106 155.298 31.4939Z" fill="#EF444E"/>
<path d="M156.13 29.2383C155.873 29.7505 155.48 30.1813 154.992 30.4826C154.505 30.7838 153.944 30.9436 153.371 30.9441H147.935C147.362 30.9434 146.8 30.7834 146.313 30.4822C145.826 30.181 145.432 29.7503 145.175 29.2383C145.103 29.0935 145.068 28.9325 145.075 28.7707C145.082 28.6088 145.13 28.4514 145.215 28.3134C145.3 28.1755 145.419 28.0615 145.56 27.9824C145.702 27.9032 145.861 27.8615 146.023 27.8612L155.385 27.8663C155.537 27.8834 155.683 27.9371 155.81 28.0227C155.937 28.1083 156.042 28.2233 156.115 28.358C156.188 28.4927 156.228 28.6431 156.23 28.7963C156.233 28.9496 156.199 29.1012 156.13 29.2383Z" fill="#7C737D"/>
<path d="M148.084 27.8612H141.918V22.3498C141.918 22.3125 141.932 22.2767 141.959 22.2503C141.985 22.224 142.021 22.2091 142.058 22.2091H147.943C147.98 22.2091 148.016 22.224 148.042 22.2503C148.069 22.2767 148.084 22.3125 148.084 22.3498V27.8612Z" fill="#E69B6C"/>
<path d="M148.084 26.3196V27.8611H141.918V23.2367C141.918 22.9644 142.027 22.7035 142.22 22.511C142.412 22.3184 142.673 22.2099 142.945 22.2091C142.945 22.7489 143.052 23.2834 143.258 23.7821C143.465 24.2809 143.768 24.734 144.149 25.1157C144.92 25.8866 145.966 26.3196 147.056 26.3196H148.084Z" fill="#E28044"/>
<path d="M161.443 12.7034C161.445 13.0484 161.413 13.3927 161.345 13.7311C161.119 14.9128 160.461 15.8123 159.388 16.1511C159.055 16.2531 158.708 16.3034 158.36 16.3001V12.7034H161.443Z" fill="#FCD7CA"/>
<path d="M168.123 21.6953C168.123 21.8978 168.083 22.0983 168.006 22.2855C167.928 22.4726 167.815 22.6427 167.672 22.7858C167.529 22.929 167.359 23.0426 167.171 23.1199C166.984 23.1973 166.784 23.237 166.581 23.2367H165.04C164.631 23.2367 164.239 23.0743 163.95 22.7852C163.661 22.4962 163.498 22.1041 163.498 21.6953C163.498 21.2864 163.661 20.8944 163.95 20.6053C164.239 20.3162 164.631 20.1538 165.04 20.1538H166.581C166.99 20.1545 167.381 20.3171 167.67 20.606C167.959 20.8949 168.122 21.2866 168.123 21.6953Z" fill="#2FD9E7"/>
<path d="M167.897 22.4969C167.76 22.7238 167.568 22.9114 167.337 23.0411C167.106 23.1709 166.846 23.2383 166.581 23.2367H165.04C164.703 23.2369 164.376 23.1271 164.109 22.9241C163.841 22.721 163.646 22.4359 163.556 22.1123C163.465 21.7886 163.482 21.4441 163.606 21.1313C163.729 20.8185 163.951 20.5546 164.238 20.3799C164.095 20.6134 164.017 20.8808 164.012 21.1544C164.007 21.4281 164.075 21.6982 164.209 21.9369C164.343 22.1755 164.538 22.3742 164.775 22.5123C165.011 22.6505 165.28 22.7232 165.553 22.7229H167.095C167.378 22.7237 167.656 22.6454 167.897 22.4969Z" fill="#0DCEDE"/>
<path d="M139.862 26.8336H138.541C138.473 26.8344 138.406 26.8217 138.343 26.7962C138.28 26.7707 138.222 26.733 138.174 26.6852C138.126 26.6374 138.087 26.5805 138.061 26.5178C138.035 26.455 138.021 26.3877 138.021 26.3198C138.021 26.2518 138.035 26.1845 138.061 26.1217C138.087 26.059 138.126 26.0021 138.174 25.9543C138.222 25.9065 138.28 25.8688 138.343 25.8433C138.406 25.8178 138.473 25.8051 138.541 25.8059H139.862C139.93 25.8051 139.998 25.8178 140.061 25.8433C140.124 25.8688 140.181 25.9065 140.23 25.9543C140.278 26.0021 140.316 26.059 140.343 26.1217C140.369 26.1845 140.382 26.2518 140.382 26.3198C140.382 26.3877 140.369 26.455 140.343 26.5178C140.316 26.5805 140.278 26.6374 140.23 26.6852C140.181 26.733 140.124 26.7707 140.061 26.7962C139.998 26.8217 139.93 26.8344 139.862 26.8336Z" fill="#E69B6C"/>
<path d="M139.862 24.7783H137.66C137.592 24.7791 137.525 24.7664 137.462 24.7409C137.399 24.7154 137.341 24.6777 137.293 24.6299C137.245 24.5821 137.206 24.5252 137.18 24.4625C137.154 24.3997 137.141 24.3324 137.141 24.2645C137.141 24.1965 137.154 24.1292 137.18 24.0664C137.206 24.0037 137.245 23.9468 137.293 23.899C137.341 23.8512 137.399 23.8135 137.462 23.788C137.525 23.7626 137.592 23.7499 137.66 23.7506H139.862C139.93 23.7499 139.998 23.7626 140.061 23.788C140.124 23.8135 140.181 23.8512 140.23 23.899C140.278 23.9468 140.316 24.0037 140.343 24.0664C140.369 24.1292 140.382 24.1965 140.382 24.2645C140.382 24.3324 140.369 24.3997 140.343 24.4625C140.316 24.5252 140.278 24.5821 140.23 24.6299C140.181 24.6777 140.124 24.7154 140.061 24.7409C139.998 24.7664 139.93 24.7791 139.862 24.7783Z" fill="#E69B6C"/>
<path d="M139.862 22.723H136.779C136.711 22.7238 136.644 22.7111 136.581 22.6856C136.518 22.6601 136.461 22.6224 136.412 22.5746C136.364 22.5268 136.326 22.4699 136.299 22.4072C136.273 22.3445 136.26 22.2771 136.26 22.2092C136.26 22.1412 136.273 22.0739 136.299 22.0111C136.326 21.9484 136.364 21.8915 136.412 21.8437C136.461 21.7959 136.518 21.7582 136.581 21.7327C136.644 21.7073 136.711 21.6946 136.779 21.6953H139.862C139.93 21.6946 139.998 21.7073 140.061 21.7327C140.124 21.7582 140.181 21.7959 140.23 21.8437C140.278 21.8915 140.316 21.9484 140.343 22.0111C140.369 22.0739 140.382 22.1412 140.382 22.2092C140.382 22.2771 140.369 22.3445 140.343 22.4072C140.316 22.4699 140.278 22.5268 140.23 22.5746C140.181 22.6224 140.124 22.6601 140.061 22.6856C139.998 22.7111 139.93 22.7238 139.862 22.723Z" fill="#E69B6C"/>
<path d="M157.322 16.6702C157.616 16.9814 157.807 17.3764 157.867 17.8006H157.852C157.773 17.8005 157.694 17.7954 157.615 17.7852C157.422 17.7551 157.232 17.7122 157.045 17.6567C156.257 17.4382 155.537 17.0226 154.954 16.4492C154.928 16.4235 154.897 16.3978 154.871 16.367C155.18 16.1049 155.452 15.8888 155.678 15.7196C156.136 16.1711 156.702 16.4983 157.322 16.6702Z" fill="#FECD55"/>
<path d="M161.443 12.7034C161.445 13.0484 161.413 13.3927 161.345 13.7311C160.826 13.7311 160.328 13.9373 159.961 14.3044C159.594 14.6716 159.388 15.1695 159.388 15.6887V16.1511C159.055 16.2531 158.708 16.3034 158.36 16.3001V12.7034H161.443Z" fill="#FAC1AD"/>
<path d="M162.198 12.7034H158.36V16.2562C158.36 16.33 158.345 16.4031 158.314 16.4704C158.284 16.5377 158.239 16.5977 158.184 16.6463C158.128 16.6949 158.063 16.7309 157.992 16.752C157.921 16.7731 157.847 16.7787 157.774 16.7684C157.621 16.7446 157.47 16.7118 157.322 16.67C156.702 16.4982 156.136 16.171 155.678 15.7194C155.257 15.3148 154.934 14.819 154.735 14.2702C154.535 13.7214 154.464 13.1341 154.527 12.5535C154.628 11.5944 155.085 10.708 155.808 10.0697C156.531 9.43137 157.467 9.08763 158.431 9.10645C159.396 9.12526 160.318 9.50527 161.015 10.1713C161.713 10.8373 162.135 11.7409 162.198 12.7032V12.7034Z" fill="#F16069"/>
<path d="M158.35 15.6425C158.355 15.6425 158.355 15.6425 158.36 15.6477V16.254C158.36 16.3278 158.345 16.4009 158.315 16.4683C158.284 16.5356 158.24 16.5957 158.184 16.6444C158.129 16.6932 158.063 16.7294 157.993 16.7507C157.922 16.7719 157.847 16.7778 157.774 16.7678C157.622 16.7432 157.471 16.7106 157.322 16.6702C156.702 16.4984 156.136 16.1712 155.678 15.7197C155.266 15.3223 154.949 14.8379 154.748 14.302C154.548 13.766 154.47 13.192 154.52 12.622C154.571 12.0521 154.748 11.5005 155.039 11.0079C155.33 10.5152 155.727 10.0938 156.202 9.77466C155.69 10.5214 155.46 11.4253 155.552 12.3258C155.645 13.2262 156.053 14.0647 156.705 14.6922C157.164 15.1438 157.73 15.4708 158.35 15.6425Z" fill="#EF444E"/>
<path d="M152.708 35.5685H148.597V33.14C148.597 33.1027 148.612 33.067 148.638 33.0406C148.665 33.0142 148.701 32.9994 148.738 32.9994H152.567C152.605 32.9994 152.64 33.0142 152.667 33.0406C152.693 33.067 152.708 33.1027 152.708 33.14V35.5685Z" fill="#2FD9E7"/>
<path d="M152.708 35.0547V35.5685H148.597V34.0271C148.598 33.8294 148.655 33.6361 148.763 33.4703C148.87 33.3044 149.023 33.1731 149.204 33.0919C149.142 33.2236 149.11 33.3676 149.111 33.5132C149.111 33.9221 149.274 34.3141 149.563 34.6032C149.852 34.8923 150.244 35.0547 150.653 35.0547H152.708Z" fill="#0DCEDE"/>
<path d="M162.471 13.2172H158.36C158.292 13.218 158.225 13.2053 158.162 13.1799C158.098 13.1544 158.041 13.1167 157.993 13.0689C157.944 13.0211 157.906 12.9642 157.88 12.9014C157.854 12.8387 157.84 12.7714 157.84 12.7034C157.84 12.6354 157.854 12.5681 157.88 12.5054C157.906 12.4427 157.944 12.3857 157.993 12.338C158.041 12.2902 158.098 12.2524 158.162 12.227C158.225 12.2015 158.292 12.1888 158.36 12.1896H162.471C162.539 12.1888 162.606 12.2015 162.669 12.227C162.732 12.2524 162.789 12.2902 162.838 12.338C162.886 12.3857 162.925 12.4427 162.951 12.5054C162.977 12.5681 162.99 12.6354 162.99 12.7034C162.99 12.7714 162.977 12.8387 162.951 12.9014C162.925 12.9642 162.886 13.0211 162.838 13.0689C162.789 13.1167 162.732 13.1544 162.669 13.1799C162.606 13.2053 162.539 13.218 162.471 13.2172Z" fill="#FFE589"/>
<path d="M148.084 26.8335H141.404C141.336 26.8327 141.268 26.8454 141.205 26.8709C141.142 26.8964 141.085 26.9341 141.037 26.9819C140.988 27.0297 140.95 27.0866 140.924 27.1493C140.897 27.212 140.884 27.2794 140.884 27.3473C140.884 27.4153 140.897 27.4826 140.924 27.5454C140.95 27.6081 140.988 27.665 141.037 27.7128C141.085 27.7606 141.142 27.7983 141.205 27.8238C141.268 27.8492 141.336 27.8619 141.404 27.8611H148.084V26.8335Z" fill="#2FD9E7"/>
<path d="M162.471 13.2172H158.36C158.292 13.218 158.225 13.2053 158.162 13.1799C158.098 13.1544 158.041 13.1167 157.993 13.0689C157.944 13.0211 157.906 12.9642 157.88 12.9014C157.854 12.8387 157.84 12.7714 157.84 12.7034C157.84 12.6354 157.854 12.5681 157.88 12.5054C157.906 12.4427 157.944 12.3857 157.993 12.338C158.041 12.2902 158.098 12.2524 158.162 12.227C158.225 12.2015 158.292 12.1888 158.36 12.1896H162.471C162.539 12.1888 162.606 12.2015 162.669 12.227C162.732 12.2524 162.789 12.2902 162.838 12.338C162.886 12.3857 162.925 12.4427 162.951 12.5054C162.977 12.5681 162.99 12.6354 162.99 12.7034C162.99 12.7714 162.977 12.8387 162.951 12.9014C162.925 12.9642 162.886 13.0211 162.838 13.0689C162.789 13.1167 162.732 13.1544 162.669 13.1799C162.606 13.2053 162.539 13.218 162.471 13.2172Z" fill="#FFE589"/>
<path d="M144.79 33.2203L144.029 35.25C143.717 35.2839 143.404 35.1955 143.156 35.0033C144.004 34.993 144.467 33.0919 144.467 33.0919L144.79 33.2203Z" fill="#FEC845"/>
</svg>
