<svg width="25" height="24" viewBox="0 0 25 24" fill="none" xmlns="http://www.w3.org/2000/svg">
<path d="M12.18 15.3699C11.99 15.3699 11.8 15.2999 11.65 15.1499C11.36 14.8599 11.36 14.3799 11.65 14.0899L13.68 12.0599L11.65 10.0299C11.36 9.73994 11.36 9.25994 11.65 8.96994C11.94 8.67994 12.42 8.67994 12.71 8.96994L15.27 11.5299C15.56 11.8199 15.56 12.2999 15.27 12.5899L12.71 15.1499C12.57 15.2999 12.37 15.3699 12.18 15.3699Z" fill="white"/>
<path d="M14.67 12.8101H4.5C4.09 12.8101 3.75 12.4701 3.75 12.0601C3.75 11.6501 4.09 11.3101 4.5 11.3101H14.67C15.08 11.3101 15.42 11.6501 15.42 12.0601C15.42 12.4701 15.08 12.8101 14.67 12.8101Z" fill="white"/>
<path d="M12.5 20.75C12.09 20.75 11.75 20.41 11.75 20C11.75 19.59 12.09 19.25 12.5 19.25C16.77 19.25 19.75 16.27 19.75 12C19.75 7.73 16.77 4.75 12.5 4.75C12.09 4.75 11.75 4.41 11.75 4C11.75 3.59 12.09 3.25 12.5 3.25C17.65 3.25 21.25 6.85 21.25 12C21.25 17.15 17.65 20.75 12.5 20.75Z" fill="white"/>
</svg>
