<svg width="129" height="50" viewBox="0 0 129 50" fill="none" xmlns="http://www.w3.org/2000/svg">
<path d="M30.7704 11.538C24.3983 11.538 11.6343 6.37242 11.6343 0H11.5399C11.5399 5.10019 13.5659 9.99149 17.1722 13.5979C20.7785 17.2044 25.6697 19.2305 30.7699 19.2307C33.83 19.2307 36.7649 20.4464 38.9288 22.6102C41.0928 24.774 42.3084 27.7089 42.3084 30.769C42.3091 33.8291 41.094 36.7644 38.9305 38.9286C36.767 41.093 33.8324 42.3091 30.7723 42.3098C27.712 42.3103 24.7769 41.0952 22.6126 38.9317C20.4483 36.7682 19.2321 33.8336 19.2315 30.7735C19.2314 28.2481 18.7339 25.7473 17.7674 23.4142C16.8009 21.0811 15.3843 18.9611 13.5985 17.1754C11.8127 15.3897 9.69264 13.9732 7.3594 13.0069C5.02618 12.0405 2.52543 11.5432 0 11.5433V11.6369C6.37122 11.6369 11.5368 24.3954 11.5392 30.7687H11.538C11.538 34.5723 12.6658 38.2904 14.7788 41.4529C16.8918 44.6154 19.8952 47.0803 23.4091 48.5358C26.9231 49.9916 30.7896 50.3726 34.5202 49.6305C38.2505 48.8887 41.6771 47.0572 44.3668 44.368C47.0562 41.6786 48.888 38.2521 49.6303 34.5216C50.3726 30.7913 49.9918 26.9247 48.5365 23.4107C47.0812 19.8966 44.6166 16.893 41.4543 14.7797C38.2918 12.6664 34.5738 11.5383 30.7704 11.538Z" fill="#F54749"/>
<path d="M60 31.4356V13.9941H63.8922V31.4356H60ZM62.9749 24.5924V21.2572H71.7261V24.5924H62.9749ZM62.9749 17.3292V13.9941H72.1227V17.3292H62.9749Z" fill="#F54749"/>
<path d="M79.6893 31.7073C78.4498 31.7073 77.3259 31.4356 76.3178 30.8921C75.3261 30.3321 74.5411 29.5745 73.9627 28.6192C73.3842 27.664 73.095 26.5934 73.095 25.4076C73.095 24.2218 73.3842 23.1595 73.9627 22.2207C74.5411 21.282 75.3261 20.5408 76.3178 19.9973C77.3094 19.4373 78.4333 19.1574 79.6893 19.1574C80.9454 19.1574 82.0692 19.4291 83.0609 19.9726C84.0525 20.5161 84.8376 21.2655 85.416 22.2207C85.9945 23.1595 86.2837 24.2218 86.2837 25.4076C86.2837 26.5934 85.9945 27.664 85.416 28.6192C84.8376 29.5745 84.0525 30.3321 83.0609 30.8921C82.0692 31.4356 80.9454 31.7073 79.6893 31.7073ZM79.6893 28.2734C80.2347 28.2734 80.714 28.1581 81.1272 27.9275C81.5404 27.6805 81.8544 27.3428 82.0692 26.9146C82.3006 26.4699 82.4163 25.9676 82.4163 25.4076C82.4163 24.8477 82.3006 24.3618 82.0692 23.9501C81.8379 23.5218 81.5156 23.1924 81.1024 22.9619C80.7058 22.7148 80.2347 22.5913 79.6893 22.5913C79.1605 22.5913 78.6894 22.7148 78.2763 22.9619C77.8631 23.1924 77.5408 23.5218 77.3094 23.9501C77.078 24.3783 76.9623 24.8724 76.9623 25.4323C76.9623 25.9758 77.078 26.4699 77.3094 26.9146C77.5408 27.3428 77.8631 27.6805 78.2763 27.9275C78.6894 28.1581 79.1605 28.2734 79.6893 28.2734Z" fill="#F54749"/>
<path d="M93.9731 31.7073C92.7336 31.7073 91.6097 31.4356 90.6015 30.8921C89.6099 30.3321 88.8249 29.5745 88.2464 28.6192C87.668 27.664 87.3787 26.5934 87.3787 25.4076C87.3787 24.2218 87.668 23.1595 88.2464 22.2207C88.8249 21.282 89.6099 20.5408 90.6015 19.9973C91.5932 19.4373 92.717 19.1574 93.9731 19.1574C95.2292 19.1574 96.353 19.4291 97.3446 19.9726C98.3363 20.5161 99.1213 21.2655 99.6998 22.2207C100.278 23.1595 100.567 24.2218 100.567 25.4076C100.567 26.5934 100.278 27.664 99.6998 28.6192C99.1213 29.5745 98.3363 30.3321 97.3446 30.8921C96.353 31.4356 95.2292 31.7073 93.9731 31.7073ZM93.9731 28.2734C94.5185 28.2734 94.9978 28.1581 95.411 27.9275C95.8241 27.6805 96.1382 27.3428 96.353 26.9146C96.5844 26.4699 96.7001 25.9676 96.7001 25.4076C96.7001 24.8477 96.5844 24.3618 96.353 23.9501C96.1216 23.5218 95.7994 23.1924 95.3862 22.9619C94.9895 22.7148 94.5185 22.5913 93.9731 22.5913C93.4442 22.5913 92.9732 22.7148 92.56 22.9619C92.1468 23.1924 91.8246 23.5218 91.5932 23.9501C91.3618 24.3783 91.2461 24.8724 91.2461 25.4323C91.2461 25.9758 91.3618 26.4699 91.5932 26.9146C91.8246 27.3428 92.1468 27.6805 92.56 27.9275C92.9732 28.1581 93.4442 28.2734 93.9731 28.2734Z" fill="#F54749"/>
<path d="M107.588 31.6826C106.447 31.6826 105.431 31.4108 104.538 30.8673C103.662 30.3238 102.968 29.5827 102.456 28.6439C101.96 27.7052 101.712 26.6346 101.712 25.4323C101.712 24.23 101.96 23.1595 102.456 22.2207C102.968 21.282 103.662 20.5408 104.538 19.9973C105.431 19.4538 106.447 19.1821 107.588 19.1821C108.414 19.1821 109.158 19.3385 109.819 19.6514C110.496 19.9644 111.05 20.4008 111.48 20.9608C111.926 21.5043 112.174 22.1301 112.223 22.8383V27.9028C112.174 28.611 111.934 29.2533 111.504 29.8298C111.075 30.3897 110.521 30.8426 109.843 31.1885C109.166 31.5179 108.414 31.6826 107.588 31.6826ZM108.257 28.2734C108.802 28.2734 109.273 28.1581 109.67 27.9275C110.067 27.6805 110.381 27.3428 110.612 26.9146C110.843 26.4864 110.959 25.9923 110.959 25.4323C110.959 24.8724 110.843 24.3865 110.612 23.9748C110.397 23.5465 110.083 23.2089 109.67 22.9619C109.273 22.7148 108.811 22.5913 108.282 22.5913C107.753 22.5913 107.282 22.7148 106.869 22.9619C106.472 23.2089 106.15 23.5465 105.902 23.9748C105.67 24.403 105.555 24.8888 105.555 25.4323C105.555 25.9758 105.67 26.4617 105.902 26.8899C106.133 27.3181 106.455 27.6557 106.869 27.9028C107.282 28.1498 107.745 28.2734 108.257 28.2734ZM114.529 31.4356H110.81V28.1992L111.381 25.2841L110.736 22.369V13.5H114.529V31.4356Z" fill="#F54749"/>
<path d="M120.918 31.485L115.96 19.4291H120.051L123.199 28.9898H121.687L124.91 19.4291H129L123.844 31.485H120.918ZM117.819 36.5L121.439 28.718L123.844 31.485L121.712 36.5H117.819Z" fill="#F54749"/>
</svg>
