<svg width="44" height="24" viewBox="0 0 44 24" fill="none" xmlns="http://www.w3.org/2000/svg">
<path d="M10.2975 5.63251L11.6175 8.27251C11.7975 8.64001 12.2775 8.99251 12.6825 9.06001L15.075 9.45751C16.605 9.71251 16.965 10.8225 15.8625 11.9175L14.0025 13.7775C13.6875 14.0925 13.515 14.7 13.6125 15.135L14.145 17.4375C14.565 19.26 13.5975 19.965 11.985 19.0125L9.74249 17.685C9.33749 17.445 8.66999 17.445 8.25749 17.685L6.01499 19.0125C4.40999 19.965 3.43499 19.2525 3.85499 17.4375L4.38749 15.135C4.48499 14.7 4.31249 14.0925 3.99749 13.7775L2.13749 11.9175C1.04249 10.8225 1.39499 9.71251 2.92499 9.45751L5.31749 9.06001C5.71499 8.99251 6.19499 8.64001 6.37499 8.27251L7.69499 5.63251C8.41499 4.20001 9.58499 4.20001 10.2975 5.63251Z" fill="#F54749"/>
<path d="M23.288 6.266H29.672V8.366H25.458V10.158C25.878 9.78467 26.41 9.598 27.054 9.598C27.7073 9.598 28.258 9.70533 28.706 9.92C29.154 10.1253 29.4947 10.4007 29.728 10.746C30.1853 11.4273 30.414 12.16 30.414 12.944C30.414 14.036 30.092 14.904 29.448 15.548C28.804 16.1827 27.922 16.5 26.802 16.5C25.682 16.5 24.7953 16.234 24.142 15.702C23.498 15.1607 23.134 14.4653 23.05 13.616H25.416C25.4627 13.8867 25.6073 14.1107 25.85 14.288C26.0927 14.456 26.4193 14.54 26.83 14.54C27.2407 14.54 27.5533 14.4047 27.768 14.134C27.992 13.854 28.104 13.4853 28.104 13.028C28.104 12.5707 27.9873 12.216 27.754 11.964C27.53 11.712 27.2267 11.586 26.844 11.586C26.4613 11.586 26.1673 11.67 25.962 11.838C25.766 11.9967 25.6447 12.1973 25.598 12.44H23.288V6.266ZM34.2135 15.198C34.2135 15.562 34.0875 15.87 33.8355 16.122C33.5835 16.374 33.2708 16.5 32.8975 16.5C32.5335 16.5 32.2255 16.374 31.9735 16.122C31.7215 15.87 31.5955 15.562 31.5955 15.198C31.5955 14.8247 31.7215 14.512 31.9735 14.26C32.2255 14.008 32.5335 13.882 32.8975 13.882C33.2708 13.882 33.5835 14.008 33.8355 14.26C34.0875 14.512 34.2135 14.8247 34.2135 15.198ZM37.4172 6.728C37.9398 6.476 38.5558 6.35 39.2652 6.35C39.9745 6.35 40.5858 6.476 41.0992 6.728C41.6218 6.98 42.0325 7.33933 42.3312 7.806C42.6298 8.27267 42.8492 8.80467 42.9892 9.402C43.1292 9.99 43.1992 10.6573 43.1992 11.404C43.1992 12.1507 43.1292 12.8227 42.9892 13.42C42.8492 14.008 42.6298 14.5353 42.3312 15.002C42.0325 15.4687 41.6218 15.828 41.0992 16.08C40.5858 16.332 39.9745 16.458 39.2652 16.458C38.5558 16.458 37.9398 16.332 37.4172 16.08C36.9038 15.828 36.4978 15.4687 36.1992 15.002C35.9005 14.5353 35.6812 14.008 35.5412 13.42C35.4012 12.8227 35.3312 12.1507 35.3312 11.404C35.3312 10.6573 35.4012 9.99 35.5412 9.402C35.6812 8.80467 35.9005 8.27267 36.1992 7.806C36.4978 7.33933 36.9038 6.98 37.4172 6.728ZM39.9652 8.758C39.7692 8.646 39.5358 8.59 39.2652 8.59C38.9945 8.59 38.7565 8.646 38.5512 8.758C38.3552 8.86067 38.2012 8.99133 38.0892 9.15C37.9865 9.30867 37.9025 9.51867 37.8372 9.78C37.7718 10.0413 37.7298 10.2933 37.7112 10.536C37.6925 10.7787 37.6832 11.068 37.6832 11.404C37.6832 11.74 37.6925 12.0293 37.7112 12.272C37.7298 12.5147 37.7718 12.7667 37.8372 13.028C37.9025 13.2893 37.9865 13.4993 38.0892 13.658C38.2012 13.8167 38.3552 13.952 38.5512 14.064C38.7565 14.1667 38.9945 14.218 39.2652 14.218C39.5358 14.218 39.7692 14.1667 39.9652 14.064C40.1705 13.952 40.3245 13.8167 40.4272 13.658C40.5392 13.4993 40.6278 13.2893 40.6932 13.028C40.7585 12.7667 40.8005 12.5147 40.8192 12.272C40.8378 12.0293 40.8472 11.74 40.8472 11.404C40.8472 11.068 40.8378 10.7787 40.8192 10.536C40.8005 10.2933 40.7585 10.0413 40.6932 9.78C40.6278 9.51867 40.5392 9.30867 40.4272 9.15C40.3245 8.99133 40.1705 8.86067 39.9652 8.758Z" fill="#241415"/>
</svg>
