<svg width="100" height="21" viewBox="0 0 100 21" fill="none" xmlns="http://www.w3.org/2000/svg">
<path d="M11.4416 3.61074L12.9083 6.54408C13.1083 6.95241 13.6416 7.34408 14.0916 7.41908L16.7499 7.86074C18.4499 8.14408 18.8499 9.37741 17.6249 10.5941L15.5583 12.6607C15.2083 13.0107 15.0166 13.6857 15.1249 14.1691L15.7166 16.7274C16.1833 18.7524 15.1083 19.5357 13.3166 18.4774L10.8249 17.0024C10.3749 16.7357 9.63326 16.7357 9.17492 17.0024L6.68326 18.4774C4.89992 19.5357 3.81659 18.7441 4.28326 16.7274L4.87492 14.1691C4.98326 13.6857 4.79159 13.0107 4.44159 12.6607L2.37492 10.5941C1.15826 9.37741 1.54992 8.14408 3.24992 7.86074L5.90826 7.41908C6.34992 7.34408 6.88326 6.95241 7.08326 6.54408L8.54992 3.61074C9.34992 2.01908 10.6499 2.01908 11.4416 3.61074Z" fill="#FFC560"/>
<path d="M31.4416 3.61074L32.9083 6.54408C33.1083 6.95241 33.6416 7.34408 34.0916 7.41908L36.7499 7.86074C38.4499 8.14408 38.8499 9.37741 37.6249 10.5941L35.5583 12.6607C35.2083 13.0107 35.0166 13.6857 35.1249 14.1691L35.7166 16.7274C36.1833 18.7524 35.1083 19.5357 33.3166 18.4774L30.8249 17.0024C30.3749 16.7357 29.6333 16.7357 29.1749 17.0024L26.6833 18.4774C24.8999 19.5357 23.8166 18.7441 24.2833 16.7274L24.8749 14.1691C24.9833 13.6857 24.7916 13.0107 24.4416 12.6607L22.3749 10.5941C21.1583 9.37741 21.5499 8.14408 23.2499 7.86074L25.9083 7.41908C26.3499 7.34408 26.8833 6.95241 27.0833 6.54408L28.5499 3.61074C29.3499 2.01908 30.6499 2.01908 31.4416 3.61074Z" fill="#FFC560"/>
<path d="M51.4416 3.61074L52.9083 6.54408C53.1083 6.95241 53.6416 7.34408 54.0916 7.41908L56.7499 7.86074C58.4499 8.14408 58.8499 9.37741 57.6249 10.5941L55.5583 12.6607C55.2083 13.0107 55.0166 13.6857 55.1249 14.1691L55.7166 16.7274C56.1833 18.7524 55.1083 19.5357 53.3166 18.4774L50.8249 17.0024C50.3749 16.7357 49.6333 16.7357 49.1749 17.0024L46.6833 18.4774C44.8999 19.5357 43.8166 18.7441 44.2833 16.7274L44.8749 14.1691C44.9833 13.6857 44.7916 13.0107 44.4416 12.6607L42.3749 10.5941C41.1583 9.37741 41.5499 8.14408 43.2499 7.86074L45.9083 7.41908C46.3499 7.34408 46.8833 6.95241 47.0833 6.54408L48.5499 3.61074C49.3499 2.01908 50.6499 2.01908 51.4416 3.61074Z" fill="#FFC560"/>
<path d="M71.4416 3.61074L72.9083 6.54408C73.1083 6.95241 73.6416 7.34408 74.0916 7.41908L76.7499 7.86074C78.4499 8.14408 78.8499 9.37741 77.6249 10.5941L75.5583 12.6607C75.2083 13.0107 75.0166 13.6857 75.1249 14.1691L75.7166 16.7274C76.1833 18.7524 75.1083 19.5357 73.3166 18.4774L70.8249 17.0024C70.3749 16.7357 69.6333 16.7357 69.1749 17.0024L66.6833 18.4774C64.8999 19.5357 63.8166 18.7441 64.2833 16.7274L64.8749 14.1691C64.9833 13.6857 64.7916 13.0107 64.4416 12.6607L62.3749 10.5941C61.1583 9.37741 61.5499 8.14408 63.2499 7.86074L65.9083 7.41908C66.3499 7.34408 66.8833 6.95241 67.0833 6.54408L68.5499 3.61074C69.3499 2.01908 70.6499 2.01908 71.4416 3.61074Z" fill="#FFC560"/>
<path d="M91.4416 3.61074L92.9083 6.54408C93.1083 6.95241 93.6416 7.34408 94.0916 7.41908L96.7499 7.86074C98.4499 8.14408 98.8499 9.37741 97.6249 10.5941L95.5583 12.6607C95.2083 13.0107 95.0166 13.6857 95.1249 14.1691L95.7166 16.7274C96.1833 18.7524 95.1083 19.5357 93.3166 18.4774L90.8249 17.0024C90.3749 16.7357 89.6333 16.7357 89.1749 17.0024L86.6833 18.4774C84.8999 19.5357 83.8166 18.7441 84.2833 16.7274L84.8749 14.1691C84.9833 13.6857 84.7916 13.0107 84.4416 12.6607L82.3749 10.5941C81.1583 9.37741 81.5499 8.14408 83.2499 7.86074L85.9083 7.41908C86.3499 7.34408 86.8833 6.95241 87.0833 6.54408L88.5499 3.61074C89.3499 2.01908 90.6499 2.01908 91.4416 3.61074Z" fill="#F1F1F1"/>
</svg>
