<svg width="17" height="14" viewBox="0 0 17 14" fill="none" xmlns="http://www.w3.org/2000/svg">
<path d="M16.0236 2.35408C15.4227 2.61946 14.7884 2.78532 14.1208 2.88484C14.7884 2.48677 15.3225 1.8565 15.5562 1.09353C14.9219 1.45843 14.2209 1.72381 13.4531 1.88967C12.8522 1.2594 11.9843 0.861328 11.0496 0.861328C9.24693 0.861328 7.77811 2.32091 7.77811 4.11221C7.77811 4.37759 7.81149 4.6098 7.87826 4.842C5.17428 4.70931 2.73736 3.41559 1.10162 1.42526C0.834561 1.92284 0.667649 2.4536 0.667649 3.0507C0.667649 4.17856 1.23515 5.17373 2.13648 5.77083C1.60236 5.73765 1.10162 5.60497 0.634266 5.37276V5.40593C0.634266 6.9982 1.76927 8.32509 3.27148 8.62364C3.00442 8.68999 2.70398 8.72316 2.40354 8.72316C2.20324 8.72316 1.96956 8.68999 1.76927 8.65682C2.20324 9.95053 3.40501 10.9125 4.84045 10.9125C3.70545 11.775 2.30339 12.3058 0.767796 12.3058C0.500737 12.3058 0.233677 12.3058 0 12.2726C1.46883 13.2014 3.17133 13.7322 5.04075 13.7322C11.083 13.7322 14.3878 8.75633 14.3878 4.44393C14.3878 4.31125 14.3878 4.14538 14.3878 4.0127C15.0221 3.58146 15.5896 3.01753 16.0236 2.35408Z" fill="#241415"/>
</svg>
